solid OpenSCAD_Model
  facet normal -0.994522 0.104529 0.000000
    outer loop
      vertex -4.650000 0.000000 17.750000
      vertex -4.650000 0.000000 18.500000
      vertex -4.548386 0.966789 17.750000
    endloop
  endfacet
  facet normal -0.994522 0.104529 0.000000
    outer loop
      vertex -4.548386 0.966789 17.750000
      vertex -4.650000 0.000000 18.500000
      vertex -4.548386 0.966789 18.500000
    endloop
  endfacet
  facet normal -0.994522 -0.104529 -0.000000
    outer loop
      vertex -4.650000 0.000000 17.750000
      vertex -4.548386 -0.966789 17.750000
      vertex -4.650000 0.000000 18.500000
    endloop
  endfacet
  facet normal -0.994522 -0.104529 0.000000
    outer loop
      vertex -4.650000 0.000000 18.500000
      vertex -4.548386 -0.966789 17.750000
      vertex -4.548386 -0.966789 18.500000
    endloop
  endfacet
  facet normal -0.828887 -0.087120 -0.552590
    outer loop
      vertex -4.548386 -0.966789 17.750000
      vertex -4.650000 0.000000 17.750000
      vertex -4.059313 -0.862834 17.000000
    endloop
  endfacet
  facet normal -0.828887 -0.087119 -0.552591
    outer loop
      vertex -4.059313 -0.862834 17.000000
      vertex -4.650000 0.000000 17.750000
      vertex -4.150000 0.000000 17.000000
    endloop
  endfacet
  facet normal -0.828887 0.087120 -0.552591
    outer loop
      vertex -4.150000 0.000000 17.000000
      vertex -4.650000 0.000000 17.750000
      vertex -4.548386 0.966789 17.750000
    endloop
  endfacet
  facet normal -0.828887 0.087119 -0.552590
    outer loop
      vertex -4.150000 0.000000 17.000000
      vertex -4.548386 0.966789 17.750000
      vertex -4.059313 0.862834 17.000000
    endloop
  endfacet
  facet normal -0.792661 0.257551 -0.552590
    outer loop
      vertex -4.059313 0.862834 17.000000
      vertex -4.548386 0.966789 17.750000
      vertex -4.247986 1.891325 17.750000
    endloop
  endfacet
  facet normal -0.951057 0.309017 0.000000
    outer loop
      vertex -4.548386 0.966789 17.750000
      vertex -4.548386 0.966789 18.500000
      vertex -4.247986 1.891325 17.750000
    endloop
  endfacet
  facet normal -0.951057 0.309017 0.000000
    outer loop
      vertex -4.247986 1.891325 17.750000
      vertex -4.548386 0.966789 18.500000
      vertex -4.247986 1.891325 18.500000
    endloop
  endfacet
  facet normal -0.828887 0.087120 0.552591
    outer loop
      vertex -4.650000 0.000000 18.500000
      vertex -3.883767 0.538524 19.564448
      vertex -4.548386 0.966789 18.500000
    endloop
  endfacet
  facet normal -0.828887 0.087120 0.552591
    outer loop
      vertex -4.548386 0.966789 18.500000
      vertex -3.883767 0.538524 19.564448
      vertex -3.883767 0.825520 19.519201
    endloop
  endfacet
  facet normal -0.792661 0.257551 0.552591
    outer loop
      vertex -4.548386 0.966789 18.500000
      vertex -3.685623 1.334795 19.566065
      vertex -4.247986 1.891325 18.500000
    endloop
  endfacet
  facet normal -0.792661 0.257551 0.552591
    outer loop
      vertex -4.247986 1.891325 18.500000
      vertex -3.685623 1.334795 19.566065
      vertex -3.555378 1.582956 19.637231
    endloop
  endfacet
  facet normal -0.792661 0.257551 0.552591
    outer loop
      vertex -4.548386 0.966789 18.500000
      vertex -3.883767 0.957263 19.457799
      vertex -3.685623 1.334795 19.566065
    endloop
  endfacet
  facet normal -0.792661 0.257551 0.552591
    outer loop
      vertex -4.548386 0.966789 18.500000
      vertex -3.883767 0.825520 19.519201
      vertex -3.883767 0.957263 19.457799
    endloop
  endfacet
  facet normal -0.828887 0.087119 0.552591
    outer loop
      vertex -3.883767 0.538524 19.564448
      vertex -4.650000 0.000000 18.500000
      vertex -3.883767 0.000000 19.649349
    endloop
  endfacet
  facet normal -0.828887 -0.087120 0.552591
    outer loop
      vertex -4.650000 0.000000 18.500000
      vertex -4.548386 -0.966789 18.500000
      vertex -3.883767 0.000000 19.649349
    endloop
  endfacet
  facet normal -0.828887 -0.087120 0.552591
    outer loop
      vertex -3.883767 0.000000 19.649349
      vertex -4.548386 -0.966789 18.500000
      vertex -3.883767 -0.251566 19.609688
    endloop
  endfacet
  facet normal -0.828887 -0.087119 0.552591
    outer loop
      vertex -3.883767 -0.251566 19.609688
      vertex -4.548386 -0.966789 18.500000
      vertex -3.883767 -0.825520 19.519201
    endloop
  endfacet
  facet normal -0.792661 -0.257551 0.552591
    outer loop
      vertex -4.548386 -0.966789 18.500000
      vertex -4.247986 -1.891325 18.500000
      vertex -3.883767 -0.825520 19.519201
    endloop
  endfacet
  facet normal -0.792661 -0.257551 0.552591
    outer loop
      vertex -3.883767 -0.957263 19.457799
      vertex -4.247986 -1.891325 18.500000
      vertex -3.792753 -1.130676 19.507529
    endloop
  endfacet
  facet normal -0.792661 -0.257551 0.552591
    outer loop
      vertex -3.883767 -0.825520 19.519201
      vertex -4.247986 -1.891325 18.500000
      vertex -3.883767 -0.957263 19.457799
    endloop
  endfacet
  facet normal -0.951057 -0.309017 -0.000000
    outer loop
      vertex -4.548386 -0.966789 17.750000
      vertex -4.247986 -1.891325 17.750000
      vertex -4.548386 -0.966789 18.500000
    endloop
  endfacet
  facet normal -0.951057 -0.309017 0.000000
    outer loop
      vertex -4.548386 -0.966789 18.500000
      vertex -4.247986 -1.891325 17.750000
      vertex -4.247986 -1.891325 18.500000
    endloop
  endfacet
  facet normal -0.792661 -0.257551 -0.552591
    outer loop
      vertex -4.247986 -1.891325 17.750000
      vertex -4.548386 -0.966789 17.750000
      vertex -3.791214 -1.687957 17.000000
    endloop
  endfacet
  facet normal -0.792661 -0.257551 -0.552590
    outer loop
      vertex -3.791214 -1.687957 17.000000
      vertex -4.548386 -0.966789 17.750000
      vertex -4.059313 -0.862834 17.000000
    endloop
  endfacet
  facet normal -0.951056 -0.309017 -0.000000
    outer loop
      vertex -4.059313 -0.862834 0.669229
      vertex -3.862007 -1.470080 0.564257
      vertex -4.059313 -0.862834 17.000000
    endloop
  endfacet
  facet normal -0.951056 -0.309017 -0.000000
    outer loop
      vertex -4.059313 -0.862834 17.000000
      vertex -3.862007 -1.470080 0.564257
      vertex -3.791214 -1.687957 0.526594
    endloop
  endfacet
  facet normal -0.951056 -0.309017 0.000000
    outer loop
      vertex -4.059313 -0.862834 17.000000
      vertex -3.791214 -1.687957 0.526594
      vertex -3.791214 -1.687957 17.000000
    endloop
  endfacet
  facet normal -0.994522 -0.104528 -0.000000
    outer loop
      vertex -4.150000 0.000000 0.526594
      vertex -4.059313 -0.862834 0.669229
      vertex -4.150000 0.000000 17.000000
    endloop
  endfacet
  facet normal -0.994522 -0.104528 0.000000
    outer loop
      vertex -4.150000 0.000000 17.000000
      vertex -4.059313 -0.862834 0.669229
      vertex -4.059313 -0.862834 17.000000
    endloop
  endfacet
  facet normal -0.994522 0.104528 0.000000
    outer loop
      vertex -4.150000 0.000000 0.526594
      vertex -4.150000 0.000000 17.000000
      vertex -4.059313 0.862834 0.669229
    endloop
  endfacet
  facet normal -0.994522 0.104528 -0.000000
    outer loop
      vertex -4.059313 0.862834 0.669229
      vertex -4.150000 0.000000 17.000000
      vertex -4.059313 0.862834 17.000000
    endloop
  endfacet
  facet normal -0.951056 0.309017 0.000000
    outer loop
      vertex -4.059313 0.862834 0.669229
      vertex -4.059313 0.862834 17.000000
      vertex -3.791214 1.687957 0.526594
    endloop
  endfacet
  facet normal -0.951056 0.309017 0.000000
    outer loop
      vertex -3.791214 1.687957 0.526594
      vertex -4.059313 0.862834 17.000000
      vertex -3.791214 1.687957 17.000000
    endloop
  endfacet
  facet normal -0.792661 0.257551 -0.552591
    outer loop
      vertex -4.059313 0.862834 17.000000
      vertex -4.247986 1.891325 17.750000
      vertex -3.791214 1.687957 17.000000
    endloop
  endfacet
  facet normal -0.721791 0.416726 -0.552591
    outer loop
      vertex -3.791214 1.687957 17.000000
      vertex -4.247986 1.891325 17.750000
      vertex -3.761929 2.733201 17.750000
    endloop
  endfacet
  facet normal -0.866026 0.500000 0.000000
    outer loop
      vertex -4.247986 1.891325 17.750000
      vertex -4.247986 1.891325 18.500000
      vertex -3.761929 2.733201 17.750000
    endloop
  endfacet
  facet normal -0.866026 0.500000 0.000000
    outer loop
      vertex -3.761929 2.733201 17.750000
      vertex -4.247986 1.891325 18.500000
      vertex -3.761929 2.733201 18.500000
    endloop
  endfacet
  facet normal -0.721791 0.416726 0.552591
    outer loop
      vertex -4.247986 1.891325 18.500000
      vertex -3.295448 2.078211 19.603263
      vertex -3.761929 2.733201 18.500000
    endloop
  endfacet
  facet normal -0.721791 0.416726 0.552591
    outer loop
      vertex -3.761929 2.733201 18.500000
      vertex -3.295448 2.078211 19.603263
      vertex -3.175355 2.307030 19.587568
    endloop
  endfacet
  facet normal -0.721791 0.416727 0.552591
    outer loop
      vertex -3.295448 2.078211 19.603263
      vertex -4.247986 1.891325 18.500000
      vertex -3.555378 1.582956 19.637231
    endloop
  endfacet
  facet normal -1.000000 0.000000 -0.000000
    outer loop
      vertex -3.883767 -0.957263 19.457799
      vertex -3.883767 -0.957263 20.200000
      vertex -3.883767 -0.825520 19.519201
    endloop
  endfacet
  facet normal -1.000000 0.000000 -0.000000
    outer loop
      vertex -3.883767 -0.825520 19.519201
      vertex -3.883767 -0.957263 20.200000
      vertex -3.883767 0.957263 20.200000
    endloop
  endfacet
  facet normal -1.000000 0.000000 0.000000
    outer loop
      vertex -3.883767 0.957263 20.200000
      vertex -3.883767 0.957263 19.457799
      vertex -3.883767 0.825520 19.519201
    endloop
  endfacet
  facet normal -1.000000 0.000000 0.000000
    outer loop
      vertex -3.883767 0.957263 20.200000
      vertex -3.883767 0.825520 19.519201
      vertex -3.883767 0.538524 19.564448
    endloop
  endfacet
  facet normal -1.000000 0.000000 0.000000
    outer loop
      vertex -3.883767 0.957263 20.200000
      vertex -3.883767 0.538524 19.564448
      vertex -3.883767 0.000000 19.649349
    endloop
  endfacet
  facet normal -1.000000 0.000000 0.000000
    outer loop
      vertex -3.883767 0.957263 20.200000
      vertex -3.883767 0.000000 19.649349
      vertex -3.883767 -0.251566 19.609688
    endloop
  endfacet
  facet normal -1.000000 0.000000 0.000000
    outer loop
      vertex -3.883767 -0.825520 19.519201
      vertex -3.883767 0.957263 20.200000
      vertex -3.883767 -0.251566 19.609688
    endloop
  endfacet
  facet normal -0.885456 0.464723 0.000000
    outer loop
      vertex -3.883767 0.957263 19.457799
      vertex -3.883767 0.957263 20.200000
      vertex -3.685623 1.334795 19.566065
    endloop
  endfacet
  facet normal -0.885456 0.464723 -0.000000
    outer loop
      vertex -3.685623 1.334795 19.566065
      vertex -3.883767 0.957263 20.200000
      vertex -2.994043 2.652491 20.200000
    endloop
  endfacet
  facet normal -0.885456 0.464723 0.000000
    outer loop
      vertex -3.175355 2.307030 19.587568
      vertex -2.994043 2.652491 20.200000
      vertex -2.994043 2.652491 19.442146
    endloop
  endfacet
  facet normal -0.885456 0.464723 -0.000000
    outer loop
      vertex -3.295448 2.078211 19.603263
      vertex -2.994043 2.652491 20.200000
      vertex -3.175355 2.307030 19.587568
    endloop
  endfacet
  facet normal -0.885456 0.464723 0.000000
    outer loop
      vertex -3.555378 1.582956 19.637231
      vertex -2.994043 2.652491 20.200000
      vertex -3.295448 2.078211 19.603263
    endloop
  endfacet
  facet normal -0.885456 0.464723 -0.000000
    outer loop
      vertex -3.685623 1.334795 19.566065
      vertex -2.994043 2.652491 20.200000
      vertex -3.555378 1.582956 19.637231
    endloop
  endfacet
  facet normal -0.885456 -0.464723 -0.000000
    outer loop
      vertex -3.883767 -0.957263 19.457799
      vertex -3.792753 -1.130676 19.507529
      vertex -3.883767 -0.957263 20.200000
    endloop
  endfacet
  facet normal -0.885456 -0.464723 -0.000000
    outer loop
      vertex -3.883767 -0.957263 20.200000
      vertex -3.792753 -1.130676 19.507529
      vertex -3.555378 -1.582956 19.637231
    endloop
  endfacet
  facet normal -0.885456 -0.464723 0.000000
    outer loop
      vertex -3.555378 -1.582956 19.637231
      vertex -3.442048 -1.798889 19.622421
      vertex -3.883767 -0.957263 20.200000
    endloop
  endfacet
  facet normal -0.885456 -0.464723 -0.000000
    outer loop
      vertex -3.442048 -1.798889 19.622421
      vertex -3.175355 -2.307030 19.587568
      vertex -3.883767 -0.957263 20.200000
    endloop
  endfacet
  facet normal -0.885456 -0.464723 0.000000
    outer loop
      vertex -3.175355 -2.307030 19.587568
      vertex -3.010482 -2.621169 19.455330
      vertex -3.883767 -0.957263 20.200000
    endloop
  endfacet
  facet normal -0.885456 -0.464723 -0.000000
    outer loop
      vertex -3.883767 -0.957263 20.200000
      vertex -3.010482 -2.621169 19.455330
      vertex -2.994043 -2.652491 19.442145
    endloop
  endfacet
  facet normal -0.885456 -0.464723 0.000000
    outer loop
      vertex -3.883767 -0.957263 20.200000
      vertex -2.994043 -2.652491 19.442145
      vertex -2.994043 -2.652491 20.200000
    endloop
  endfacet
  facet normal -0.792660 -0.257551 0.552591
    outer loop
      vertex -3.792753 -1.130676 19.507529
      vertex -4.247986 -1.891325 18.500000
      vertex -3.555378 -1.582956 19.637231
    endloop
  endfacet
  facet normal -0.721791 -0.416726 0.552591
    outer loop
      vertex -4.247986 -1.891325 18.500000
      vertex -3.761929 -2.733201 18.500000
      vertex -3.555378 -1.582956 19.637231
    endloop
  endfacet
  facet normal -0.721791 -0.416726 0.552591
    outer loop
      vertex -3.555378 -1.582956 19.637231
      vertex -3.761929 -2.733201 18.500000
      vertex -3.442048 -1.798889 19.622421
    endloop
  endfacet
  facet normal -0.866026 -0.500000 -0.000000
    outer loop
      vertex -4.247986 -1.891325 17.750000
      vertex -3.761929 -2.733201 17.750000
      vertex -4.247986 -1.891325 18.500000
    endloop
  endfacet
  facet normal -0.866026 -0.500000 0.000000
    outer loop
      vertex -4.247986 -1.891325 18.500000
      vertex -3.761929 -2.733201 17.750000
      vertex -3.761929 -2.733201 18.500000
    endloop
  endfacet
  facet normal -0.721791 -0.416726 -0.552591
    outer loop
      vertex -3.761929 -2.733201 17.750000
      vertex -4.247986 -1.891325 17.750000
      vertex -3.357421 -2.439309 17.000000
    endloop
  endfacet
  facet normal -0.721791 -0.416726 -0.552591
    outer loop
      vertex -3.357421 -2.439309 17.000000
      vertex -4.247986 -1.891325 17.750000
      vertex -3.791214 -1.687957 17.000000
    endloop
  endfacet
  facet normal -0.866026 -0.500000 -0.000000
    outer loop
      vertex -3.791214 -1.687957 0.526594
      vertex -3.357421 -2.439309 0.669230
      vertex -3.791214 -1.687957 17.000000
    endloop
  endfacet
  facet normal -0.866026 -0.500000 0.000000
    outer loop
      vertex -3.791214 -1.687957 17.000000
      vertex -3.357421 -2.439309 0.669230
      vertex -3.357421 -2.439309 17.000000
    endloop
  endfacet
  facet normal -0.770921 -0.343236 0.536534
    outer loop
      vertex -3.862007 -1.470080 0.564257
      vertex -3.761929 -2.733201 -0.100000
      vertex -3.791214 -1.687957 0.526594
    endloop
  endfacet
  facet normal -0.770921 -0.343236 0.536534
    outer loop
      vertex -3.791214 -1.687957 0.526594
      vertex -3.761929 -2.733201 -0.100000
      vertex -3.357421 -2.439309 0.669230
    endloop
  endfacet
  facet normal -0.770921 -0.343236 0.536534
    outer loop
      vertex -4.548386 -0.966789 -0.100000
      vertex -3.761929 -2.733201 -0.100000
      vertex -4.059313 -0.862834 0.669229
    endloop
  endfacet
  facet normal -0.770921 -0.343236 0.536534
    outer loop
      vertex -4.059313 -0.862834 0.669229
      vertex -3.761929 -2.733201 -0.100000
      vertex -3.862007 -1.470080 0.564257
    endloop
  endfacet
  facet normal -0.843878 0.000000 0.536535
    outer loop
      vertex -4.548386 -0.966789 -0.100000
      vertex -4.059313 -0.862834 0.669229
      vertex -4.548386 0.966789 -0.100000
    endloop
  endfacet
  facet normal -0.843878 -0.000000 0.536535
    outer loop
      vertex -4.548386 0.966789 -0.100000
      vertex -4.059313 -0.862834 0.669229
      vertex -4.150000 0.000000 0.526594
    endloop
  endfacet
  facet normal -0.843878 0.000000 0.536535
    outer loop
      vertex -4.548386 0.966789 -0.100000
      vertex -4.150000 0.000000 0.526594
      vertex -4.059313 0.862834 0.669229
    endloop
  endfacet
  facet normal -0.770921 0.343236 0.536534
    outer loop
      vertex -4.548386 0.966789 -0.100000
      vertex -4.059313 0.862834 0.669229
      vertex -3.791214 1.687957 0.526594
    endloop
  endfacet
  facet normal -0.770921 0.343236 0.536534
    outer loop
      vertex -4.548386 0.966789 -0.100000
      vertex -3.791214 1.687957 0.526594
      vertex -3.676669 1.886355 0.564258
    endloop
  endfacet
  facet normal -0.866026 0.500000 0.000000
    outer loop
      vertex -3.791214 1.687957 0.526594
      vertex -3.791214 1.687957 17.000000
      vertex -3.676669 1.886355 0.564258
    endloop
  endfacet
  facet normal -0.866026 0.500000 -0.000000
    outer loop
      vertex -3.676669 1.886355 0.564258
      vertex -3.791214 1.687957 17.000000
      vertex -3.357421 2.439309 17.000000
    endloop
  endfacet
  facet normal -0.866026 0.500000 0.000000
    outer loop
      vertex -3.676669 1.886355 0.564258
      vertex -3.357421 2.439309 17.000000
      vertex -3.357421 2.439309 0.669230
    endloop
  endfacet
  facet normal -0.721791 0.416726 -0.552591
    outer loop
      vertex -3.357421 2.439309 17.000000
      vertex -3.791214 1.687957 17.000000
      vertex -3.761929 2.733201 17.750000
    endloop
  endfacet
  facet normal -0.619376 0.557689 -0.552591
    outer loop
      vertex -3.357421 2.439309 17.000000
      vertex -3.761929 2.733201 17.750000
      vertex -3.111457 3.455623 17.750000
    endloop
  endfacet
  facet normal -0.743145 0.669131 0.000000
    outer loop
      vertex -3.761929 2.733201 17.750000
      vertex -3.761929 2.733201 18.500000
      vertex -3.111457 3.455623 17.750000
    endloop
  endfacet
  facet normal -0.743145 0.669131 0.000000
    outer loop
      vertex -3.111457 3.455623 17.750000
      vertex -3.761929 2.733201 18.500000
      vertex -3.111457 3.455623 18.500000
    endloop
  endfacet
  facet normal -0.619376 0.557689 0.552591
    outer loop
      vertex -3.761929 2.733201 18.500000
      vertex -2.896796 2.719616 19.483402
      vertex -3.111457 3.455623 18.500000
    endloop
  endfacet
  facet normal -0.619376 0.557689 0.552591
    outer loop
      vertex -3.111457 3.455623 18.500000
      vertex -2.896796 2.719616 19.483402
      vertex -2.620483 2.910341 19.600625
    endloop
  endfacet
  facet normal -0.619376 0.557688 0.552591
    outer loop
      vertex -3.761929 2.733201 18.500000
      vertex -2.994043 2.652491 19.442146
      vertex -2.896796 2.719616 19.483402
    endloop
  endfacet
  facet normal -0.619376 0.557688 0.552591
    outer loop
      vertex -3.761929 2.733201 18.500000
      vertex -3.175355 2.307030 19.587568
      vertex -2.994043 2.652491 19.442146
    endloop
  endfacet
  facet normal 0.000000 -0.000000 1.000000
    outer loop
      vertex -3.883767 0.957263 20.200000
      vertex -3.883767 -0.957263 20.200000
      vertex -2.994043 -2.652491 20.200000
    endloop
  endfacet
  facet normal 0.000000 0.000000 1.000000
    outer loop
      vertex 0.482147 -3.970835 20.200000
      vertex -3.883767 0.957263 20.200000
      vertex -1.418420 -3.740065 20.200000
    endloop
  endfacet
  facet normal 0.000000 0.000000 1.000000
    outer loop
      vertex -1.418420 -3.740065 20.200000
      vertex -3.883767 0.957263 20.200000
      vertex -2.994043 -2.652491 20.200000
    endloop
  endfacet
  facet normal -0.000000 0.000000 1.000000
    outer loop
      vertex 2.272259 -3.291935 20.200000
      vertex -3.883767 0.957263 20.200000
      vertex 0.482147 -3.970835 20.200000
    endloop
  endfacet
  facet normal -0.000000 0.000000 1.000000
    outer loop
      vertex 3.541824 -1.858893 20.200000
      vertex -3.883767 0.957263 20.200000
      vertex 2.272259 -3.291935 20.200000
    endloop
  endfacet
  facet normal -0.000000 0.000000 1.000000
    outer loop
      vertex 4.000000 0.000000 20.200000
      vertex -3.883767 0.957263 20.200000
      vertex 3.541824 -1.858893 20.200000
    endloop
  endfacet
  facet normal 0.000000 -0.000000 1.000000
    outer loop
      vertex 3.541824 1.858893 20.200000
      vertex -3.883767 0.957263 20.200000
      vertex 4.000000 0.000000 20.200000
    endloop
  endfacet
  facet normal 0.000000 -0.000000 1.000000
    outer loop
      vertex 2.272259 3.291935 20.200000
      vertex -3.883767 0.957263 20.200000
      vertex 3.541824 1.858893 20.200000
    endloop
  endfacet
  facet normal 0.000000 -0.000000 1.000000
    outer loop
      vertex 0.482147 3.970835 20.200000
      vertex -3.883767 0.957263 20.200000
      vertex 2.272259 3.291935 20.200000
    endloop
  endfacet
  facet normal 0.000000 -0.000000 1.000000
    outer loop
      vertex -1.418420 3.740065 20.200000
      vertex -3.883767 0.957263 20.200000
      vertex 0.482147 3.970835 20.200000
    endloop
  endfacet
  facet normal 0.000000 -0.000000 1.000000
    outer loop
      vertex -2.994043 2.652491 20.200000
      vertex -3.883767 0.957263 20.200000
      vertex -1.418420 3.740065 20.200000
    endloop
  endfacet
  facet normal -0.568065 0.822984 0.000000
    outer loop
      vertex -2.994043 2.652491 19.442146
      vertex -2.994043 2.652491 20.200000
      vertex -2.896796 2.719616 19.483402
    endloop
  endfacet
  facet normal -0.568065 0.822984 -0.000000
    outer loop
      vertex -2.896796 2.719616 19.483402
      vertex -2.994043 2.652491 20.200000
      vertex -1.418420 3.740065 20.200000
    endloop
  endfacet
  facet normal -0.568065 0.822984 0.000000
    outer loop
      vertex -1.534375 3.660027 19.490685
      vertex -1.418420 3.740065 20.200000
      vertex -1.418420 3.740065 19.451538
    endloop
  endfacet
  facet normal -0.568065 0.822984 -0.000000
    outer loop
      vertex -1.948201 3.374384 19.630397
      vertex -1.418420 3.740065 20.200000
      vertex -1.534375 3.660027 19.490685
    endloop
  endfacet
  facet normal -0.568065 0.822984 -0.000000
    outer loop
      vertex -2.149637 3.235343 19.621476
      vertex -1.418420 3.740065 20.200000
      vertex -1.948201 3.374384 19.630397
    endloop
  endfacet
  facet normal -0.568065 0.822984 0.000000
    outer loop
      vertex -2.620483 2.910341 19.600625
      vertex -1.418420 3.740065 20.200000
      vertex -2.149637 3.235343 19.621476
    endloop
  endfacet
  facet normal -0.568065 0.822984 0.000000
    outer loop
      vertex -2.896796 2.719616 19.483402
      vertex -1.418420 3.740065 20.200000
      vertex -2.620483 2.910341 19.600625
    endloop
  endfacet
  facet normal -0.568065 -0.822984 -0.000000
    outer loop
      vertex -1.948201 -3.374384 19.630397
      vertex -1.708437 -3.539881 19.549451
      vertex -2.994043 -2.652491 20.200000
    endloop
  endfacet
  facet normal -0.568065 -0.822984 0.000000
    outer loop
      vertex -2.994043 -2.652491 20.200000
      vertex -2.994043 -2.652491 19.442145
      vertex -2.620483 -2.910341 19.600625
    endloop
  endfacet
  facet normal -0.568065 -0.822984 -0.000000
    outer loop
      vertex -1.708437 -3.539881 19.549451
      vertex -1.418420 -3.740065 19.451539
      vertex -2.994043 -2.652491 20.200000
    endloop
  endfacet
  facet normal -0.568065 -0.822984 -0.000000
    outer loop
      vertex -2.411812 -3.054376 19.609866
      vertex -2.994043 -2.652491 20.200000
      vertex -2.620483 -2.910341 19.600625
    endloop
  endfacet
  facet normal -0.568065 -0.822984 0.000000
    outer loop
      vertex -2.411812 -3.054376 19.609866
      vertex -1.948201 -3.374384 19.630397
      vertex -2.994043 -2.652491 20.200000
    endloop
  endfacet
  facet normal -0.568065 -0.822984 -0.000000
    outer loop
      vertex -1.418420 -3.740065 19.451539
      vertex -1.418420 -3.740065 20.200000
      vertex -2.994043 -2.652491 20.200000
    endloop
  endfacet
  facet normal -0.619377 -0.557688 0.552591
    outer loop
      vertex -3.111457 -3.455623 18.500000
      vertex -2.994043 -2.652491 19.442145
      vertex -3.010482 -2.621169 19.455330
    endloop
  endfacet
  facet normal -0.619377 -0.557688 0.552591
    outer loop
      vertex -3.111457 -3.455623 18.500000
      vertex -2.620483 -2.910341 19.600625
      vertex -2.994043 -2.652491 19.442145
    endloop
  endfacet
  facet normal -0.619376 -0.557689 0.552591
    outer loop
      vertex -3.761929 -2.733201 18.500000
      vertex -3.111457 -3.455623 18.500000
      vertex -3.175355 -2.307030 19.587568
    endloop
  endfacet
  facet normal -0.619376 -0.557689 0.552591
    outer loop
      vertex -3.175355 -2.307030 19.587568
      vertex -3.111457 -3.455623 18.500000
      vertex -3.010482 -2.621169 19.455330
    endloop
  endfacet
  facet normal -0.721791 -0.416727 0.552591
    outer loop
      vertex -3.442048 -1.798889 19.622421
      vertex -3.761929 -2.733201 18.500000
      vertex -3.175355 -2.307030 19.587568
    endloop
  endfacet
  facet normal -0.743145 -0.669131 -0.000000
    outer loop
      vertex -3.761929 -2.733201 17.750000
      vertex -3.111457 -3.455623 17.750000
      vertex -3.761929 -2.733201 18.500000
    endloop
  endfacet
  facet normal -0.743145 -0.669131 0.000000
    outer loop
      vertex -3.761929 -2.733201 18.500000
      vertex -3.111457 -3.455623 17.750000
      vertex -3.111457 -3.455623 18.500000
    endloop
  endfacet
  facet normal -0.619376 -0.557689 -0.552591
    outer loop
      vertex -3.111457 -3.455623 17.750000
      vertex -3.761929 -2.733201 17.750000
      vertex -2.776892 -3.084051 17.000000
    endloop
  endfacet
  facet normal -0.619376 -0.557689 -0.552591
    outer loop
      vertex -2.776892 -3.084051 17.000000
      vertex -3.761929 -2.733201 17.750000
      vertex -3.357421 -2.439309 17.000000
    endloop
  endfacet
  facet normal -0.743144 -0.669131 -0.000000
    outer loop
      vertex -3.357421 -2.439309 17.000000
      vertex -3.357421 -2.439309 0.669230
      vertex -2.930185 -2.913802 0.564259
    endloop
  endfacet
  facet normal -0.743144 -0.669131 -0.000000
    outer loop
      vertex -3.357421 -2.439309 17.000000
      vertex -2.930185 -2.913802 0.564259
      vertex -2.776892 -3.084051 0.526595
    endloop
  endfacet
  facet normal -0.743144 -0.669131 0.000000
    outer loop
      vertex -3.357421 -2.439309 17.000000
      vertex -2.776892 -3.084051 0.526595
      vertex -2.776892 -3.084051 17.000000
    endloop
  endfacet
  facet normal -0.564665 -0.627124 0.536534
    outer loop
      vertex -3.357421 -2.439309 0.669230
      vertex -3.761929 -2.733201 -0.100000
      vertex -2.325000 -4.027018 -0.100000
    endloop
  endfacet
  facet normal -0.564665 -0.627124 0.536534
    outer loop
      vertex -2.930185 -2.913802 0.564259
      vertex -3.357421 -2.439309 0.669230
      vertex -2.325000 -4.027018 -0.100000
    endloop
  endfacet
  facet normal -0.000000 -0.000000 -1.000000
    outer loop
      vertex -4.548386 -0.966789 -0.100000
      vertex -4.548386 0.966789 -0.100000
      vertex -3.761929 -2.733201 -0.100000
    endloop
  endfacet
  facet normal 0.000000 0.000000 -1.000000
    outer loop
      vertex -3.761929 -2.733201 -0.100000
      vertex -4.548386 0.966789 -0.100000
      vertex -3.761929 2.733201 -0.100000
    endloop
  endfacet
  facet normal 0.000000 -0.000000 -1.000000
    outer loop
      vertex -3.761929 -2.733201 -0.100000
      vertex -3.761929 2.733201 -0.100000
      vertex -2.325000 4.027018 -0.100000
    endloop
  endfacet
  facet normal 0.000000 0.000000 -1.000000
    outer loop
      vertex -3.761929 -2.733201 -0.100000
      vertex -2.325000 4.027018 -0.100000
      vertex -0.486057 4.624527 -0.100000
    endloop
  endfacet
  facet normal 0.000000 0.000000 -1.000000
    outer loop
      vertex -3.761929 -2.733201 -0.100000
      vertex -0.486057 4.624527 -0.100000
      vertex 1.436929 4.422413 -0.100000
    endloop
  endfacet
  facet normal 0.000000 0.000000 -1.000000
    outer loop
      vertex -3.761929 -2.733201 -0.100000
      vertex 1.436929 4.422413 -0.100000
      vertex 3.111457 3.455623 -0.100000
    endloop
  endfacet
  facet normal 0.000000 0.000000 -1.000000
    outer loop
      vertex -3.761929 -2.733201 -0.100000
      vertex 3.111457 3.455623 -0.100000
      vertex 4.247986 1.891325 -0.100000
    endloop
  endfacet
  facet normal 0.000000 0.000000 -1.000000
    outer loop
      vertex -3.761929 -2.733201 -0.100000
      vertex 4.247986 1.891325 -0.100000
      vertex 4.650000 0.000000 -0.100000
    endloop
  endfacet
  facet normal 0.000000 0.000000 -1.000000
    outer loop
      vertex -3.761929 -2.733201 -0.100000
      vertex 4.650000 0.000000 -0.100000
      vertex 4.247986 -1.891325 -0.100000
    endloop
  endfacet
  facet normal -0.000000 0.000000 -1.000000
    outer loop
      vertex -3.761929 -2.733201 -0.100000
      vertex 4.247986 -1.891325 -0.100000
      vertex 3.111457 -3.455623 -0.100000
    endloop
  endfacet
  facet normal 0.000000 0.000000 -1.000000
    outer loop
      vertex -3.761929 -2.733201 -0.100000
      vertex 3.111457 -3.455623 -0.100000
      vertex 1.436929 -4.422413 -0.100000
    endloop
  endfacet
  facet normal 0.000000 0.000000 -1.000000
    outer loop
      vertex -3.761929 -2.733201 -0.100000
      vertex 1.436929 -4.422413 -0.100000
      vertex -0.486057 -4.624527 -0.100000
    endloop
  endfacet
  facet normal 0.000000 0.000000 -1.000000
    outer loop
      vertex -3.761929 -2.733201 -0.100000
      vertex -0.486057 -4.624527 -0.100000
      vertex -2.325000 -4.027018 -0.100000
    endloop
  endfacet
  facet normal -0.770921 0.343236 0.536534
    outer loop
      vertex -4.548386 0.966789 -0.100000
      vertex -3.676669 1.886355 0.564258
      vertex -3.761929 2.733201 -0.100000
    endloop
  endfacet
  facet normal -0.770921 0.343236 0.536534
    outer loop
      vertex -3.761929 2.733201 -0.100000
      vertex -3.676669 1.886355 0.564258
      vertex -3.357421 2.439309 0.669230
    endloop
  endfacet
  facet normal -0.743144 0.669131 -0.000000
    outer loop
      vertex -3.357421 2.439309 0.669230
      vertex -3.357421 2.439309 17.000000
      vertex -2.776892 3.084051 17.000000
    endloop
  endfacet
  facet normal -0.743144 0.669131 0.000000
    outer loop
      vertex -3.357421 2.439309 0.669230
      vertex -2.776892 3.084051 17.000000
      vertex -2.776892 3.084051 0.526595
    endloop
  endfacet
  facet normal -0.619376 0.557689 -0.552591
    outer loop
      vertex -2.776892 3.084051 17.000000
      vertex -3.357421 2.439309 17.000000
      vertex -3.111457 3.455623 17.750000
    endloop
  endfacet
  facet normal -0.489892 0.674277 -0.552591
    outer loop
      vertex -2.776892 3.084051 17.000000
      vertex -3.111457 3.455623 17.750000
      vertex -2.325000 4.027018 17.750000
    endloop
  endfacet
  facet normal -0.587786 0.809017 0.000000
    outer loop
      vertex -3.111457 3.455623 17.750000
      vertex -3.111457 3.455623 18.500000
      vertex -2.325000 4.027018 17.750000
    endloop
  endfacet
  facet normal -0.587786 0.809017 0.000000
    outer loop
      vertex -2.325000 4.027018 17.750000
      vertex -3.111457 3.455623 18.500000
      vertex -2.325000 4.027018 18.500000
    endloop
  endfacet
  facet normal -0.489891 0.674277 0.552591
    outer loop
      vertex -3.111457 3.455623 18.500000
      vertex -2.149637 3.235343 19.621476
      vertex -2.325000 4.027018 18.500000
    endloop
  endfacet
  facet normal -0.489891 0.674277 0.552591
    outer loop
      vertex -2.325000 4.027018 18.500000
      vertex -2.149637 3.235343 19.621476
      vertex -1.948201 3.374384 19.630397
    endloop
  endfacet
  facet normal -0.489891 0.674278 0.552591
    outer loop
      vertex -2.149637 3.235343 19.621476
      vertex -3.111457 3.455623 18.500000
      vertex -2.620483 2.910341 19.600625
    endloop
  endfacet
  facet normal -0.120536 0.992709 0.000000
    outer loop
      vertex -1.418420 3.740065 19.451538
      vertex -1.418420 3.740065 20.200000
      vertex -1.222933 3.763801 19.538757
    endloop
  endfacet
  facet normal -0.120536 0.992709 -0.000000
    outer loop
      vertex -1.222933 3.763801 19.538757
      vertex -1.418420 3.740065 20.200000
      vertex 0.482147 3.970835 20.200000
    endloop
  endfacet
  facet normal -0.120536 0.992709 0.000000
    outer loop
      vertex 0.482147 3.970835 20.200000
      vertex 0.482147 3.970835 19.465620
      vertex 0.416514 3.962866 19.497959
    endloop
  endfacet
  facet normal -0.120536 0.992709 -0.000000
    outer loop
      vertex 0.482147 3.970835 20.200000
      vertex 0.416514 3.962866 19.497959
      vertex -0.406017 3.862993 19.648593
    endloop
  endfacet
  facet normal -0.120536 0.992709 0.000000
    outer loop
      vertex 0.482147 3.970835 20.200000
      vertex -0.406017 3.862993 19.648593
      vertex -0.652054 3.833118 19.615513
    endloop
  endfacet
  facet normal -0.120536 0.992709 -0.000000
    outer loop
      vertex -1.222933 3.763801 19.538757
      vertex 0.482147 3.970835 20.200000
      vertex -0.652054 3.833118 19.615513
    endloop
  endfacet
  facet normal 0.354605 0.935016 0.000000
    outer loop
      vertex 0.482147 3.970835 19.465620
      vertex 0.482147 3.970835 20.200000
      vertex 0.948303 3.794045 19.580258
    endloop
  endfacet
  facet normal 0.354605 0.935016 -0.000000
    outer loop
      vertex 0.948303 3.794045 19.580258
      vertex 0.482147 3.970835 20.200000
      vertex 2.272259 3.291935 20.200000
    endloop
  endfacet
  facet normal 0.354605 0.935016 0.000000
    outer loop
      vertex 1.967360 3.407568 19.572920
      vertex 2.272259 3.291935 20.200000
      vertex 2.272259 3.291935 19.443713
    endloop
  endfacet
  facet normal 0.354605 0.935016 -0.000000
    outer loop
      vertex 1.720319 3.501258 19.595378
      vertex 2.272259 3.291935 20.200000
      vertex 1.967360 3.407568 19.572920
    endloop
  endfacet
  facet normal 0.354605 0.935016 -0.000000
    outer loop
      vertex 1.201553 3.698000 19.642538
      vertex 2.272259 3.291935 20.200000
      vertex 1.720319 3.501258 19.595378
    endloop
  endfacet
  facet normal 0.354605 0.935016 0.000000
    outer loop
      vertex 0.948303 3.794045 19.580258
      vertex 2.272259 3.291935 20.200000
      vertex 1.201553 3.698000 19.642538
    endloop
  endfacet
  facet normal 0.748511 0.663123 0.000000
    outer loop
      vertex 2.403868 3.143380 19.508306
      vertex 2.272259 3.291935 19.443713
      vertex 2.272259 3.291935 20.200000
    endloop
  endfacet
  facet normal 0.748511 0.663123 0.000000
    outer loop
      vertex 2.615361 2.904653 19.612106
      vertex 2.403868 3.143380 19.508306
      vertex 3.541824 1.858893 20.200000
    endloop
  endfacet
  facet normal 0.748511 0.663123 -0.000000
    outer loop
      vertex 3.541824 1.858893 20.200000
      vertex 2.403868 3.143380 19.508306
      vertex 2.272259 3.291935 20.200000
    endloop
  endfacet
  facet normal 0.748511 0.663123 0.000000
    outer loop
      vertex 3.541824 1.858893 19.446843
      vertex 3.484677 1.923399 19.472843
      vertex 3.541824 1.858893 20.200000
    endloop
  endfacet
  facet normal 0.748511 0.663123 0.000000
    outer loop
      vertex 3.484677 1.923399 19.472843
      vertex 3.156771 2.293528 19.622025
      vertex 3.541824 1.858893 20.200000
    endloop
  endfacet
  facet normal 0.748511 0.663123 -0.000000
    outer loop
      vertex 3.156771 2.293528 19.622025
      vertex 2.993179 2.478184 19.619028
      vertex 3.541824 1.858893 20.200000
    endloop
  endfacet
  facet normal 0.748511 0.663123 -0.000000
    outer loop
      vertex 2.993179 2.478184 19.619028
      vertex 2.615361 2.904653 19.612106
      vertex 3.541824 1.858893 20.200000
    endloop
  endfacet
  facet normal 0.970942 0.239316 0.000000
    outer loop
      vertex 3.604451 1.604805 19.556656
      vertex 3.541824 1.858893 19.446843
      vertex 3.541824 1.858893 20.200000
    endloop
  endfacet
  facet normal 0.970942 0.239316 -0.000000
    outer loop
      vertex 4.000000 0.000000 20.200000
      vertex 3.604451 1.604805 19.556656
      vertex 3.541824 1.858893 20.200000
    endloop
  endfacet
  facet normal 0.970942 0.239316 0.000000
    outer loop
      vertex 3.926626 0.297689 19.538128
      vertex 4.000000 0.000000 20.200000
      vertex 4.000000 0.000000 19.475000
    endloop
  endfacet
  facet normal 0.970942 0.239316 -0.000000
    outer loop
      vertex 3.800870 0.807900 19.646324
      vertex 4.000000 0.000000 20.200000
      vertex 3.926626 0.297689 19.538128
    endloop
  endfacet
  facet normal 0.970942 0.239316 0.000000
    outer loop
      vertex 3.742153 1.046128 19.619518
      vertex 4.000000 0.000000 20.200000
      vertex 3.800870 0.807900 19.646324
    endloop
  endfacet
  facet normal 0.970942 0.239316 -0.000000
    outer loop
      vertex 3.742153 1.046128 19.619518
      vertex 3.604451 1.604805 19.556656
      vertex 4.000000 0.000000 20.200000
    endloop
  endfacet
  facet normal 0.970942 -0.239316 0.000000
    outer loop
      vertex 3.800870 -0.807900 19.646324
      vertex 3.863808 -0.552552 19.592175
      vertex 3.541824 -1.858893 20.200000
    endloop
  endfacet
  facet normal 0.970942 -0.239316 0.000000
    outer loop
      vertex 3.541824 -1.858893 20.200000
      vertex 3.541824 -1.858893 19.446843
      vertex 3.604451 -1.604805 19.556656
    endloop
  endfacet
  facet normal 0.970942 -0.239316 -0.000000
    outer loop
      vertex 3.863808 -0.552552 19.592175
      vertex 4.000000 0.000000 19.475000
      vertex 3.541824 -1.858893 20.200000
    endloop
  endfacet
  facet normal 0.970942 -0.239316 -0.000000
    outer loop
      vertex 3.669285 -1.341764 19.586253
      vertex 3.541824 -1.858893 20.200000
      vertex 3.604451 -1.604805 19.556656
    endloop
  endfacet
  facet normal 0.970942 -0.239316 -0.000000
    outer loop
      vertex 3.669285 -1.341764 19.586253
      vertex 3.800870 -0.807900 19.646324
      vertex 3.541824 -1.858893 20.200000
    endloop
  endfacet
  facet normal 0.970942 -0.239316 0.000000
    outer loop
      vertex 4.000000 0.000000 19.475000
      vertex 4.000000 0.000000 20.200000
      vertex 3.541824 -1.858893 20.200000
    endloop
  endfacet
  facet normal 0.748511 -0.663123 0.000000
    outer loop
      vertex 2.272259 -3.291935 20.200000
      vertex 2.272259 -3.291935 19.443712
      vertex 2.293255 -3.268235 19.454017
    endloop
  endfacet
  facet normal 0.748511 -0.663123 -0.000000
    outer loop
      vertex 2.780902 -2.717796 19.615139
      vertex 2.272259 -3.291935 20.200000
      vertex 2.615361 -2.904653 19.612106
    endloop
  endfacet
  facet normal 0.748511 -0.663123 -0.000000
    outer loop
      vertex 2.615361 -2.904653 19.612106
      vertex 2.272259 -3.291935 20.200000
      vertex 2.293255 -3.268235 19.454017
    endloop
  endfacet
  facet normal 0.748511 -0.663123 0.000000
    outer loop
      vertex 3.156771 -2.293528 19.622025
      vertex 2.272259 -3.291935 20.200000
      vertex 2.780902 -2.717796 19.615139
    endloop
  endfacet
  facet normal 0.748511 -0.663123 -0.000000
    outer loop
      vertex 3.156771 -2.293528 19.622025
      vertex 3.358481 -2.065844 19.530256
      vertex 2.272259 -3.291935 20.200000
    endloop
  endfacet
  facet normal 0.748511 -0.663123 -0.000000
    outer loop
      vertex 3.358481 -2.065844 19.530256
      vertex 3.541824 -1.858893 19.446843
      vertex 2.272259 -3.291935 20.200000
    endloop
  endfacet
  facet normal 0.748511 -0.663123 0.000000
    outer loop
      vertex 3.541824 -1.858893 19.446843
      vertex 3.541824 -1.858893 20.200000
      vertex 2.272259 -3.291935 20.200000
    endloop
  endfacet
  facet normal 0.354605 -0.935016 -0.000000
    outer loop
      vertex 1.967360 -3.407568 19.572920
      vertex 2.272259 -3.291935 20.200000
      vertex 0.482147 -3.970835 20.200000
    endloop
  endfacet
  facet normal 0.354605 -0.935016 0.000000
    outer loop
      vertex 0.482147 -3.970835 20.200000
      vertex 0.482147 -3.970835 19.465620
      vertex 0.716899 -3.881805 19.523351
    endloop
  endfacet
  facet normal 0.354605 -0.935016 -0.000000
    outer loop
      vertex 1.201553 -3.698000 19.642538
      vertex 0.482147 -3.970835 20.200000
      vertex 0.716899 -3.881805 19.523351
    endloop
  endfacet
  facet normal 0.354605 -0.935016 -0.000000
    outer loop
      vertex 1.201553 -3.698000 19.642538
      vertex 1.429743 -3.611459 19.621794
      vertex 0.482147 -3.970835 20.200000
    endloop
  endfacet
  facet normal 0.354605 -0.935016 0.000000
    outer loop
      vertex 1.429743 -3.611459 19.621794
      vertex 1.967360 -3.407568 19.572920
      vertex 0.482147 -3.970835 20.200000
    endloop
  endfacet
  facet normal 0.354605 -0.935016 0.000000
    outer loop
      vertex 2.272259 -3.291935 19.443712
      vertex 2.272259 -3.291935 20.200000
      vertex 1.967360 -3.407568 19.572920
    endloop
  endfacet
  facet normal -0.120536 -0.992709 -0.000000
    outer loop
      vertex -0.406017 -3.862993 19.648593
      vertex 0.416514 -3.962866 19.497959
      vertex -1.418420 -3.740065 20.200000
    endloop
  endfacet
  facet normal -0.120536 -0.992709 0.000000
    outer loop
      vertex -1.418420 -3.740065 20.200000
      vertex -1.418420 -3.740065 19.451539
      vertex -1.222933 -3.763801 19.538757
    endloop
  endfacet
  facet normal -0.120536 -0.992709 -0.000000
    outer loop
      vertex 0.416514 -3.962866 19.497959
      vertex 0.482147 -3.970835 20.200000
      vertex -1.418420 -3.740065 20.200000
    endloop
  endfacet
  facet normal -0.120536 -0.992709 -0.000000
    outer loop
      vertex -0.946451 -3.797372 19.575931
      vertex -1.418420 -3.740065 20.200000
      vertex -1.222933 -3.763801 19.538757
    endloop
  endfacet
  facet normal -0.120536 -0.992709 -0.000000
    outer loop
      vertex -0.946451 -3.797372 19.575931
      vertex -0.406017 -3.862993 19.648593
      vertex -1.418420 -3.740065 20.200000
    endloop
  endfacet
  facet normal -0.120536 -0.992709 -0.000000
    outer loop
      vertex 0.482147 -3.970835 19.465620
      vertex 0.482147 -3.970835 20.200000
      vertex 0.416514 -3.962866 19.497959
    endloop
  endfacet
  facet normal -0.338995 0.761397 0.552591
    outer loop
      vertex -1.534375 3.660027 19.490685
      vertex -2.325000 4.027018 18.500000
      vertex -1.948201 3.374384 19.630397
    endloop
  endfacet
  facet normal -0.338996 0.761397 0.552591
    outer loop
      vertex -2.325000 4.027018 18.500000
      vertex -1.534375 3.660027 19.490685
      vertex -1.436929 4.422413 18.500000
    endloop
  endfacet
  facet normal -0.338996 0.761397 0.552591
    outer loop
      vertex -1.436929 4.422413 18.500000
      vertex -1.534375 3.660027 19.490685
      vertex -1.418420 3.740065 19.451538
    endloop
  endfacet
  facet normal -0.338996 0.761397 0.552591
    outer loop
      vertex -1.436929 4.422413 18.500000
      vertex -1.418420 3.740065 19.451538
      vertex -1.222933 3.763801 19.538757
    endloop
  endfacet
  facet normal -0.338995 -0.761397 0.552591
    outer loop
      vertex -1.418420 -3.740065 19.451539
      vertex -1.708437 -3.539881 19.549451
      vertex -1.436929 -4.422413 18.500000
    endloop
  endfacet
  facet normal -0.338995 -0.761397 0.552591
    outer loop
      vertex -1.222933 -3.763801 19.538757
      vertex -1.418420 -3.740065 19.451539
      vertex -1.436929 -4.422413 18.500000
    endloop
  endfacet
  facet normal -0.338996 -0.761397 0.552591
    outer loop
      vertex -1.948201 -3.374384 19.630397
      vertex -2.325000 -4.027018 18.500000
      vertex -1.436929 -4.422413 18.500000
    endloop
  endfacet
  facet normal -0.338996 -0.761397 0.552591
    outer loop
      vertex -1.708437 -3.539881 19.549451
      vertex -1.948201 -3.374384 19.630397
      vertex -1.436929 -4.422413 18.500000
    endloop
  endfacet
  facet normal -0.489891 -0.674277 0.552591
    outer loop
      vertex -1.948201 -3.374384 19.630397
      vertex -2.411812 -3.054376 19.609866
      vertex -2.325000 -4.027018 18.500000
    endloop
  endfacet
  facet normal -0.489892 -0.674277 0.552591
    outer loop
      vertex -2.620483 -2.910341 19.600625
      vertex -3.111457 -3.455623 18.500000
      vertex -2.325000 -4.027018 18.500000
    endloop
  endfacet
  facet normal -0.489892 -0.674277 0.552591
    outer loop
      vertex -2.411812 -3.054376 19.609866
      vertex -2.620483 -2.910341 19.600625
      vertex -2.325000 -4.027018 18.500000
    endloop
  endfacet
  facet normal -0.587786 -0.809017 0.000000
    outer loop
      vertex -3.111457 -3.455623 18.500000
      vertex -3.111457 -3.455623 17.750000
      vertex -2.325000 -4.027018 17.750000
    endloop
  endfacet
  facet normal -0.587786 -0.809017 0.000000
    outer loop
      vertex -2.325000 -4.027018 18.500000
      vertex -3.111457 -3.455623 18.500000
      vertex -2.325000 -4.027018 17.750000
    endloop
  endfacet
  facet normal -0.489891 -0.674277 -0.552591
    outer loop
      vertex -2.325000 -4.027018 17.750000
      vertex -3.111457 -3.455623 17.750000
      vertex -2.075000 -3.594005 17.000000
    endloop
  endfacet
  facet normal -0.489891 -0.674278 -0.552591
    outer loop
      vertex -2.075000 -3.594005 17.000000
      vertex -3.111457 -3.455623 17.750000
      vertex -2.776892 -3.084051 17.000000
    endloop
  endfacet
  facet normal -0.587785 -0.809017 0.000000
    outer loop
      vertex -2.776892 -3.084051 17.000000
      vertex -2.776892 -3.084051 0.526595
      vertex -2.075000 -3.594005 0.669232
    endloop
  endfacet
  facet normal -0.587785 -0.809017 0.000000
    outer loop
      vertex -2.075000 -3.594005 17.000000
      vertex -2.776892 -3.084051 17.000000
      vertex -2.075000 -3.594005 0.669232
    endloop
  endfacet
  facet normal -0.564665 -0.627124 0.536534
    outer loop
      vertex -2.776892 -3.084051 0.526595
      vertex -2.930185 -2.913802 0.564259
      vertex -2.325000 -4.027018 -0.100000
    endloop
  endfacet
  facet normal -0.564665 -0.627124 0.536534
    outer loop
      vertex -2.075000 -3.594005 0.669232
      vertex -2.776892 -3.084051 0.526595
      vertex -2.325000 -4.027018 -0.100000
    endloop
  endfacet
  facet normal -0.260773 -0.802576 0.536534
    outer loop
      vertex -2.075000 -3.594005 0.669232
      vertex -2.325000 -4.027018 -0.100000
      vertex -0.486057 -4.624527 -0.100000
    endloop
  endfacet
  facet normal -0.260773 -0.802576 0.536534
    outer loop
      vertex -1.491707 -3.853705 0.564259
      vertex -2.075000 -3.594005 0.669232
      vertex -0.486057 -4.624527 -0.100000
    endloop
  endfacet
  facet normal -0.260773 -0.802576 0.536534
    outer loop
      vertex -1.282421 -3.946885 0.526594
      vertex -1.491707 -3.853705 0.564259
      vertex -0.486057 -4.624527 -0.100000
    endloop
  endfacet
  facet normal -0.260773 -0.802576 0.536534
    outer loop
      vertex -0.433793 -4.127266 0.669231
      vertex -1.282421 -3.946885 0.526594
      vertex -0.486057 -4.624527 -0.100000
    endloop
  endfacet
  facet normal 0.088209 -0.839256 0.536534
    outer loop
      vertex -0.433793 -4.127266 0.669231
      vertex -0.486057 -4.624527 -0.100000
      vertex 1.436929 -4.422413 -0.100000
    endloop
  endfacet
  facet normal 0.088209 -0.839256 0.536534
    outer loop
      vertex 0.204699 -4.127266 0.564259
      vertex -0.433793 -4.127266 0.669231
      vertex 1.436929 -4.422413 -0.100000
    endloop
  endfacet
  facet normal 0.088210 -0.839255 0.536535
    outer loop
      vertex 0.433793 -4.127266 0.526595
      vertex 0.204699 -4.127266 0.564259
      vertex 1.436929 -4.422413 -0.100000
    endloop
  endfacet
  facet normal 0.088210 -0.839255 0.536535
    outer loop
      vertex 1.282421 -3.946885 0.669230
      vertex 0.433793 -4.127266 0.526595
      vertex 1.436929 -4.422413 -0.100000
    endloop
  endfacet
  facet normal 0.421939 -0.730820 0.536535
    outer loop
      vertex 3.111457 -3.455623 -0.100000
      vertex 1.282421 -3.946885 0.669230
      vertex 1.436929 -4.422413 -0.100000
    endloop
  endfacet
  facet normal 0.421939 -0.730820 0.536535
    outer loop
      vertex 1.865714 -3.687186 0.564259
      vertex 1.282421 -3.946885 0.669230
      vertex 3.111457 -3.455623 -0.100000
    endloop
  endfacet
  facet normal 0.421939 -0.730820 0.536534
    outer loop
      vertex 2.075000 -3.594005 0.526595
      vertex 1.865714 -3.687186 0.564259
      vertex 3.111457 -3.455623 -0.100000
    endloop
  endfacet
  facet normal 0.421939 -0.730820 0.536534
    outer loop
      vertex 2.776892 -3.084051 0.669230
      vertex 2.075000 -3.594005 0.526595
      vertex 3.111457 -3.455623 -0.100000
    endloop
  endfacet
  facet normal 0.682712 -0.496019 0.536534
    outer loop
      vertex 4.247986 -1.891325 -0.100000
      vertex 2.776892 -3.084051 0.669230
      vertex 3.111457 -3.455623 -0.100000
    endloop
  endfacet
  facet normal 0.682712 -0.496019 0.536534
    outer loop
      vertex 3.204130 -2.609555 0.564257
      vertex 2.776892 -3.084051 0.669230
      vertex 4.247986 -1.891325 -0.100000
    endloop
  endfacet
  facet normal 0.682712 -0.496020 0.536534
    outer loop
      vertex 3.357421 -2.439309 0.526593
      vertex 3.204130 -2.609555 0.564257
      vertex 4.247986 -1.891325 -0.100000
    endloop
  endfacet
  facet normal 0.682712 -0.496020 0.536534
    outer loop
      vertex 3.791214 -1.687957 0.669231
      vertex 3.357421 -2.439309 0.526593
      vertex 4.247986 -1.891325 -0.100000
    endloop
  endfacet
  facet normal 0.000000 -0.000000 0.000000
    outer loop
      vertex 3.791214 -1.687957 0.669230
      vertex 3.791214 -1.687957 0.669231
      vertex 4.247986 -1.891325 -0.100000
    endloop
  endfacet
  facet normal 0.825438 -0.175452 0.536534
    outer loop
      vertex 4.650000 0.000000 -0.100000
      vertex 3.791214 -1.687957 0.669230
      vertex 4.247986 -1.891325 -0.100000
    endloop
  endfacet
  facet normal 0.825438 -0.175452 0.536534
    outer loop
      vertex 3.988520 -1.080713 0.564258
      vertex 3.791214 -1.687957 0.669230
      vertex 4.650000 0.000000 -0.100000
    endloop
  endfacet
  facet normal 0.825438 -0.175452 0.536534
    outer loop
      vertex 4.059313 -0.862834 0.526594
      vertex 3.988520 -1.080713 0.564258
      vertex 4.650000 0.000000 -0.100000
    endloop
  endfacet
  facet normal 0.825438 -0.175452 0.536534
    outer loop
      vertex 4.150000 0.000000 0.669231
      vertex 4.059313 -0.862834 0.526594
      vertex 4.650000 0.000000 -0.100000
    endloop
  endfacet
  facet normal 0.825438 0.175452 0.536534
    outer loop
      vertex 4.247986 1.891325 -0.100000
      vertex 4.083259 0.634998 0.564258
      vertex 4.150000 0.000000 0.669231
    endloop
  endfacet
  facet normal 0.825438 0.175452 0.536534
    outer loop
      vertex 4.650000 0.000000 -0.100000
      vertex 4.247986 1.891325 -0.100000
      vertex 4.150000 0.000000 0.669231
    endloop
  endfacet
  facet normal 0.000000 0.000000 0.000000
    outer loop
      vertex 4.247986 1.891325 -0.100000
      vertex 3.791214 1.687957 0.669231
      vertex 3.791214 1.687957 0.669230
    endloop
  endfacet
  facet normal 0.825438 0.175452 0.536534
    outer loop
      vertex 4.059313 0.862834 0.526594
      vertex 4.247986 1.891325 -0.100000
      vertex 3.791214 1.687957 0.669230
    endloop
  endfacet
  facet normal 0.825438 0.175452 0.536534
    outer loop
      vertex 4.059313 0.862834 0.526594
      vertex 4.083259 0.634998 0.564258
      vertex 4.247986 1.891325 -0.100000
    endloop
  endfacet
  facet normal 0.682712 0.496019 0.536534
    outer loop
      vertex 4.247986 1.891325 -0.100000
      vertex 3.111457 3.455623 -0.100000
      vertex 3.471966 2.240910 0.564258
    endloop
  endfacet
  facet normal 0.682712 0.496019 0.536534
    outer loop
      vertex 3.791214 1.687957 0.669231
      vertex 4.247986 1.891325 -0.100000
      vertex 3.471966 2.240910 0.564258
    endloop
  endfacet
  facet normal 0.682712 0.496020 0.536535
    outer loop
      vertex 3.357421 2.439309 0.526594
      vertex 3.111457 3.455623 -0.100000
      vertex 2.776892 3.084051 0.669230
    endloop
  endfacet
  facet normal 0.682712 0.496020 0.536535
    outer loop
      vertex 3.357421 2.439309 0.526594
      vertex 3.471966 2.240910 0.564258
      vertex 3.111457 3.455623 -0.100000
    endloop
  endfacet
  facet normal 0.421939 0.730820 0.536534
    outer loop
      vertex 1.436929 4.422413 -0.100000
      vertex 2.260340 3.459348 0.564259
      vertex 3.111457 3.455623 -0.100000
    endloop
  endfacet
  facet normal 0.421939 0.730820 0.536534
    outer loop
      vertex 3.111457 3.455623 -0.100000
      vertex 2.260340 3.459348 0.564259
      vertex 2.776892 3.084051 0.669230
    endloop
  endfacet
  facet normal 0.421939 0.730820 0.536535
    outer loop
      vertex 1.436929 4.422413 -0.100000
      vertex 1.282421 3.946885 0.669230
      vertex 2.075000 3.594005 0.526595
    endloop
  endfacet
  facet normal 0.421939 0.730820 0.536535
    outer loop
      vertex 2.075000 3.594005 0.526595
      vertex 2.260340 3.459348 0.564259
      vertex 1.436929 4.422413 -0.100000
    endloop
  endfacet
  facet normal 0.088209 0.839255 0.536535
    outer loop
      vertex -0.486057 4.624527 -0.100000
      vertex 0.657879 4.079635 0.564258
      vertex 1.436929 4.422413 -0.100000
    endloop
  endfacet
  facet normal 0.088209 0.839255 0.536535
    outer loop
      vertex 1.436929 4.422413 -0.100000
      vertex 0.657879 4.079635 0.564258
      vertex 1.282421 3.946885 0.669230
    endloop
  endfacet
  facet normal 0.088210 0.839256 0.536534
    outer loop
      vertex -0.486057 4.624527 -0.100000
      vertex -0.433793 4.127266 0.669231
      vertex 0.433793 4.127266 0.526595
    endloop
  endfacet
  facet normal 0.088210 0.839256 0.536534
    outer loop
      vertex -0.486057 4.624527 -0.100000
      vertex 0.433793 4.127266 0.526595
      vertex 0.657879 4.079635 0.564258
    endloop
  endfacet
  facet normal -0.260773 0.802576 0.536534
    outer loop
      vertex -2.325000 4.027018 -0.100000
      vertex -1.058335 3.994516 0.564258
      vertex -0.486057 4.624527 -0.100000
    endloop
  endfacet
  facet normal -0.260773 0.802576 0.536534
    outer loop
      vertex -0.486057 4.624527 -0.100000
      vertex -1.058335 3.994516 0.564258
      vertex -0.433793 4.127266 0.669231
    endloop
  endfacet
  facet normal -0.260773 0.802576 0.536534
    outer loop
      vertex -2.325000 4.027018 -0.100000
      vertex -1.282421 3.946885 0.526594
      vertex -1.058335 3.994516 0.564258
    endloop
  endfacet
  facet normal -0.260773 0.802576 0.536534
    outer loop
      vertex -2.325000 4.027018 -0.100000
      vertex -2.075000 3.594005 0.669232
      vertex -1.282421 3.946885 0.526594
    endloop
  endfacet
  facet normal -0.564665 0.627124 0.536534
    outer loop
      vertex -3.761929 2.733201 -0.100000
      vertex -2.591551 3.218709 0.564259
      vertex -2.325000 4.027018 -0.100000
    endloop
  endfacet
  facet normal -0.564665 0.627124 0.536534
    outer loop
      vertex -2.325000 4.027018 -0.100000
      vertex -2.591551 3.218709 0.564259
      vertex -2.075000 3.594005 0.669232
    endloop
  endfacet
  facet normal -0.564665 0.627124 0.536534
    outer loop
      vertex -3.761929 2.733201 -0.100000
      vertex -2.776892 3.084051 0.526595
      vertex -2.591551 3.218709 0.564259
    endloop
  endfacet
  facet normal -0.564665 0.627124 0.536534
    outer loop
      vertex -3.761929 2.733201 -0.100000
      vertex -3.357421 2.439309 0.669230
      vertex -2.776892 3.084051 0.526595
    endloop
  endfacet
  facet normal -0.587785 0.809017 0.000000
    outer loop
      vertex -2.776892 3.084051 0.526595
      vertex -2.776892 3.084051 17.000000
      vertex -2.591551 3.218709 0.564259
    endloop
  endfacet
  facet normal -0.587785 0.809017 -0.000000
    outer loop
      vertex -2.591551 3.218709 0.564259
      vertex -2.776892 3.084051 17.000000
      vertex -2.075000 3.594005 17.000000
    endloop
  endfacet
  facet normal -0.587785 0.809017 0.000000
    outer loop
      vertex -2.591551 3.218709 0.564259
      vertex -2.075000 3.594005 17.000000
      vertex -2.075000 3.594005 0.669232
    endloop
  endfacet
  facet normal -0.489891 0.674277 -0.552591
    outer loop
      vertex -2.075000 3.594005 17.000000
      vertex -2.776892 3.084051 17.000000
      vertex -2.325000 4.027018 17.750000
    endloop
  endfacet
  facet normal -0.338996 0.761396 -0.552591
    outer loop
      vertex -2.075000 3.594005 17.000000
      vertex -2.325000 4.027018 17.750000
      vertex -1.436929 4.422413 17.750000
    endloop
  endfacet
  facet normal -0.406737 0.913545 0.000000
    outer loop
      vertex -2.325000 4.027018 17.750000
      vertex -2.325000 4.027018 18.500000
      vertex -1.436929 4.422413 17.750000
    endloop
  endfacet
  facet normal -0.406737 0.913545 0.000000
    outer loop
      vertex -1.436929 4.422413 17.750000
      vertex -2.325000 4.027018 18.500000
      vertex -1.436929 4.422413 18.500000
    endloop
  endfacet
  facet normal -0.173285 0.815239 0.552591
    outer loop
      vertex -0.652054 3.833118 19.615513
      vertex -1.436929 4.422413 18.500000
      vertex -1.222933 3.763801 19.538757
    endloop
  endfacet
  facet normal -0.173284 0.815240 0.552591
    outer loop
      vertex -1.436929 4.422413 18.500000
      vertex -0.652054 3.833118 19.615513
      vertex -0.486057 4.624527 18.500000
    endloop
  endfacet
  facet normal -0.173284 0.815240 0.552591
    outer loop
      vertex -0.486057 4.624527 18.500000
      vertex -0.652054 3.833118 19.615513
      vertex -0.406017 3.862993 19.648593
    endloop
  endfacet
  facet normal 0.000000 0.833452 0.552591
    outer loop
      vertex -0.486057 4.624527 18.500000
      vertex -0.406017 3.862993 19.648593
      vertex 0.486057 4.624527 18.500000
    endloop
  endfacet
  facet normal -0.000000 0.833452 0.552591
    outer loop
      vertex 0.486057 4.624527 18.500000
      vertex -0.406017 3.862993 19.648593
      vertex 0.416514 3.962866 19.497959
    endloop
  endfacet
  facet normal 0.173285 0.815239 0.552591
    outer loop
      vertex 0.416514 3.962866 19.497959
      vertex 0.482147 3.970835 19.465620
      vertex 0.486057 4.624527 18.500000
    endloop
  endfacet
  facet normal 0.173285 0.815239 0.552591
    outer loop
      vertex 0.486057 4.624527 18.500000
      vertex 0.482147 3.970835 19.465620
      vertex 0.948303 3.794045 19.580258
    endloop
  endfacet
  facet normal 0.173284 0.815239 0.552591
    outer loop
      vertex 0.486057 4.624527 18.500000
      vertex 0.948303 3.794045 19.580258
      vertex 1.436929 4.422413 18.500000
    endloop
  endfacet
  facet normal 0.173284 0.815239 0.552591
    outer loop
      vertex 1.436929 4.422413 18.500000
      vertex 0.948303 3.794045 19.580258
      vertex 1.201553 3.698000 19.642538
    endloop
  endfacet
  facet normal 0.338995 0.761397 0.552591
    outer loop
      vertex 1.436929 4.422413 18.500000
      vertex 1.201553 3.698000 19.642538
      vertex 1.720319 3.501258 19.595378
    endloop
  endfacet
  facet normal 0.338996 0.761397 0.552591
    outer loop
      vertex 1.436929 4.422413 18.500000
      vertex 1.720319 3.501258 19.595378
      vertex 2.325000 4.027018 18.500000
    endloop
  endfacet
  facet normal 0.338996 0.761397 0.552591
    outer loop
      vertex 2.325000 4.027018 18.500000
      vertex 1.720319 3.501258 19.595378
      vertex 1.967360 3.407568 19.572920
    endloop
  endfacet
  facet normal 0.489891 0.674277 0.552591
    outer loop
      vertex 1.967360 3.407568 19.572920
      vertex 2.272259 3.291935 19.443713
      vertex 2.325000 4.027018 18.500000
    endloop
  endfacet
  facet normal 0.489891 0.674277 0.552591
    outer loop
      vertex 2.325000 4.027018 18.500000
      vertex 2.272259 3.291935 19.443713
      vertex 2.403868 3.143380 19.508306
    endloop
  endfacet
  facet normal 0.489892 0.674277 0.552591
    outer loop
      vertex 2.325000 4.027018 18.500000
      vertex 2.403868 3.143380 19.508306
      vertex 3.111457 3.455623 18.500000
    endloop
  endfacet
  facet normal 0.489892 0.674277 0.552591
    outer loop
      vertex 3.111457 3.455623 18.500000
      vertex 2.403868 3.143380 19.508306
      vertex 2.615361 2.904653 19.612106
    endloop
  endfacet
  facet normal 0.619377 0.557688 0.552591
    outer loop
      vertex 3.111457 3.455623 18.500000
      vertex 2.615361 2.904653 19.612106
      vertex 2.993179 2.478184 19.619028
    endloop
  endfacet
  facet normal 0.619376 0.557689 0.552591
    outer loop
      vertex 3.111457 3.455623 18.500000
      vertex 2.993179 2.478184 19.619028
      vertex 3.156771 2.293528 19.622025
    endloop
  endfacet
  facet normal 0.619376 0.557689 0.552591
    outer loop
      vertex 3.761929 2.733201 18.500000
      vertex 3.111457 3.455623 18.500000
      vertex 3.156771 2.293528 19.622025
    endloop
  endfacet
  facet normal 0.721791 0.416727 0.552591
    outer loop
      vertex 3.761929 2.733201 18.500000
      vertex 3.156771 2.293528 19.622025
      vertex 3.484677 1.923399 19.472843
    endloop
  endfacet
  facet normal 0.721791 0.416726 0.552591
    outer loop
      vertex 3.761929 2.733201 18.500000
      vertex 3.484677 1.923399 19.472843
      vertex 3.541824 1.858893 19.446843
    endloop
  endfacet
  facet normal 0.721791 0.416726 0.552591
    outer loop
      vertex 3.604451 1.604805 19.556656
      vertex 3.761929 2.733201 18.500000
      vertex 3.541824 1.858893 19.446843
    endloop
  endfacet
  facet normal 0.721791 0.416726 0.552591
    outer loop
      vertex 3.604451 1.604805 19.556656
      vertex 4.247986 1.891325 18.500000
      vertex 3.761929 2.733201 18.500000
    endloop
  endfacet
  facet normal 0.792660 0.257551 0.552591
    outer loop
      vertex 4.247986 1.891325 18.500000
      vertex 3.604451 1.604805 19.556656
      vertex 3.742153 1.046128 19.619518
    endloop
  endfacet
  facet normal 0.792661 0.257551 0.552591
    outer loop
      vertex 4.247986 1.891325 18.500000
      vertex 3.742153 1.046128 19.619518
      vertex 3.800870 0.807900 19.646324
    endloop
  endfacet
  facet normal 0.792661 0.257551 0.552591
    outer loop
      vertex 4.548386 0.966789 18.500000
      vertex 4.247986 1.891325 18.500000
      vertex 3.800870 0.807900 19.646324
    endloop
  endfacet
  facet normal 0.828887 0.087119 0.552591
    outer loop
      vertex 4.548386 0.966789 18.500000
      vertex 3.800870 0.807900 19.646324
      vertex 3.926626 0.297689 19.538128
    endloop
  endfacet
  facet normal 0.828887 0.087120 0.552591
    outer loop
      vertex 4.548386 0.966789 18.500000
      vertex 3.926626 0.297689 19.538128
      vertex 4.000000 0.000000 19.475000
    endloop
  endfacet
  facet normal 0.828887 0.087120 0.552591
    outer loop
      vertex 4.650000 0.000000 18.500000
      vertex 4.548386 0.966789 18.500000
      vertex 4.000000 0.000000 19.475000
    endloop
  endfacet
  facet normal 0.828887 -0.087119 0.552591
    outer loop
      vertex 4.000000 0.000000 19.475000
      vertex 3.863808 -0.552552 19.592175
      vertex 4.650000 0.000000 18.500000
    endloop
  endfacet
  facet normal 0.828887 -0.087120 0.552591
    outer loop
      vertex 3.863808 -0.552552 19.592175
      vertex 3.800870 -0.807900 19.646324
      vertex 4.548386 -0.966789 18.500000
    endloop
  endfacet
  facet normal 0.828887 -0.087120 0.552591
    outer loop
      vertex 4.650000 0.000000 18.500000
      vertex 3.863808 -0.552552 19.592175
      vertex 4.548386 -0.966789 18.500000
    endloop
  endfacet
  facet normal 0.792661 -0.257551 0.552591
    outer loop
      vertex 3.800870 -0.807900 19.646324
      vertex 3.669285 -1.341764 19.586253
      vertex 4.548386 -0.966789 18.500000
    endloop
  endfacet
  facet normal 0.792661 -0.257551 0.552591
    outer loop
      vertex 3.669285 -1.341764 19.586253
      vertex 3.604451 -1.604805 19.556656
      vertex 4.247986 -1.891325 18.500000
    endloop
  endfacet
  facet normal 0.792661 -0.257551 0.552591
    outer loop
      vertex 4.548386 -0.966789 18.500000
      vertex 3.669285 -1.341764 19.586253
      vertex 4.247986 -1.891325 18.500000
    endloop
  endfacet
  facet normal 0.721791 -0.416727 0.552591
    outer loop
      vertex 3.541824 -1.858893 19.446843
      vertex 3.358481 -2.065844 19.530256
      vertex 4.247986 -1.891325 18.500000
    endloop
  endfacet
  facet normal 0.721791 -0.416727 0.552591
    outer loop
      vertex 3.604451 -1.604805 19.556656
      vertex 3.541824 -1.858893 19.446843
      vertex 4.247986 -1.891325 18.500000
    endloop
  endfacet
  facet normal 0.721791 -0.416726 0.552591
    outer loop
      vertex 3.358481 -2.065844 19.530256
      vertex 3.156771 -2.293528 19.622025
      vertex 3.761929 -2.733201 18.500000
    endloop
  endfacet
  facet normal 0.721791 -0.416726 0.552591
    outer loop
      vertex 4.247986 -1.891325 18.500000
      vertex 3.358481 -2.065844 19.530256
      vertex 3.761929 -2.733201 18.500000
    endloop
  endfacet
  facet normal 0.619376 -0.557688 0.552591
    outer loop
      vertex 3.156771 -2.293528 19.622025
      vertex 2.780902 -2.717796 19.615139
      vertex 3.761929 -2.733201 18.500000
    endloop
  endfacet
  facet normal 0.619376 -0.557689 0.552591
    outer loop
      vertex 2.780902 -2.717796 19.615139
      vertex 2.615361 -2.904653 19.612106
      vertex 3.111457 -3.455623 18.500000
    endloop
  endfacet
  facet normal 0.619376 -0.557689 0.552591
    outer loop
      vertex 3.761929 -2.733201 18.500000
      vertex 2.780902 -2.717796 19.615139
      vertex 3.111457 -3.455623 18.500000
    endloop
  endfacet
  facet normal 0.489891 -0.674278 0.552591
    outer loop
      vertex 2.615361 -2.904653 19.612106
      vertex 2.293255 -3.268235 19.454017
      vertex 3.111457 -3.455623 18.500000
    endloop
  endfacet
  facet normal 0.489891 -0.674277 0.552591
    outer loop
      vertex 2.272259 -3.291935 19.443712
      vertex 1.967360 -3.407568 19.572920
      vertex 2.325000 -4.027018 18.500000
    endloop
  endfacet
  facet normal 0.489891 -0.674277 0.552591
    outer loop
      vertex 2.293255 -3.268235 19.454017
      vertex 2.272259 -3.291935 19.443712
      vertex 3.111457 -3.455623 18.500000
    endloop
  endfacet
  facet normal 0.489891 -0.674277 0.552591
    outer loop
      vertex 3.111457 -3.455623 18.500000
      vertex 2.272259 -3.291935 19.443712
      vertex 2.325000 -4.027018 18.500000
    endloop
  endfacet
  facet normal 0.338995 -0.761397 0.552591
    outer loop
      vertex 1.967360 -3.407568 19.572920
      vertex 1.429743 -3.611459 19.621794
      vertex 2.325000 -4.027018 18.500000
    endloop
  endfacet
  facet normal 0.338996 -0.761397 0.552591
    outer loop
      vertex 1.429743 -3.611459 19.621794
      vertex 1.201553 -3.698000 19.642538
      vertex 1.436929 -4.422413 18.500000
    endloop
  endfacet
  facet normal 0.338996 -0.761397 0.552591
    outer loop
      vertex 2.325000 -4.027018 18.500000
      vertex 1.429743 -3.611459 19.621794
      vertex 1.436929 -4.422413 18.500000
    endloop
  endfacet
  facet normal 0.173285 -0.815239 0.552591
    outer loop
      vertex 1.201553 -3.698000 19.642538
      vertex 0.716899 -3.881805 19.523351
      vertex 1.436929 -4.422413 18.500000
    endloop
  endfacet
  facet normal 0.173284 -0.815240 0.552591
    outer loop
      vertex 0.482147 -3.970835 19.465620
      vertex 0.416514 -3.962866 19.497959
      vertex 0.486057 -4.624527 18.500000
    endloop
  endfacet
  facet normal 0.173284 -0.815240 0.552591
    outer loop
      vertex 0.716899 -3.881805 19.523351
      vertex 0.482147 -3.970835 19.465620
      vertex 1.436929 -4.422413 18.500000
    endloop
  endfacet
  facet normal 0.173284 -0.815240 0.552591
    outer loop
      vertex 1.436929 -4.422413 18.500000
      vertex 0.482147 -3.970835 19.465620
      vertex 0.486057 -4.624527 18.500000
    endloop
  endfacet
  facet normal 0.000000 -0.833452 0.552591
    outer loop
      vertex -0.406017 -3.862993 19.648593
      vertex -0.486057 -4.624527 18.500000
      vertex 0.486057 -4.624527 18.500000
    endloop
  endfacet
  facet normal -0.000000 -0.833452 0.552591
    outer loop
      vertex 0.416514 -3.962866 19.497959
      vertex -0.406017 -3.862993 19.648593
      vertex 0.486057 -4.624527 18.500000
    endloop
  endfacet
  facet normal -0.173285 -0.815239 0.552591
    outer loop
      vertex -0.406017 -3.862993 19.648593
      vertex -0.946451 -3.797372 19.575931
      vertex -0.486057 -4.624527 18.500000
    endloop
  endfacet
  facet normal -0.173284 -0.815239 0.552591
    outer loop
      vertex -1.222933 -3.763801 19.538757
      vertex -1.436929 -4.422413 18.500000
      vertex -0.486057 -4.624527 18.500000
    endloop
  endfacet
  facet normal -0.173284 -0.815239 0.552591
    outer loop
      vertex -0.946451 -3.797372 19.575931
      vertex -1.222933 -3.763801 19.538757
      vertex -0.486057 -4.624527 18.500000
    endloop
  endfacet
  facet normal -0.207912 0.978148 0.000000
    outer loop
      vertex -1.436929 4.422413 17.750000
      vertex -1.436929 4.422413 18.500000
      vertex -0.486057 4.624527 17.750000
    endloop
  endfacet
  facet normal -0.207912 0.978148 0.000000
    outer loop
      vertex -0.486057 4.624527 17.750000
      vertex -1.436929 4.422413 18.500000
      vertex -0.486057 4.624527 18.500000
    endloop
  endfacet
  facet normal -0.207912 -0.978148 0.000000
    outer loop
      vertex -1.436929 -4.422413 18.500000
      vertex -1.436929 -4.422413 17.750000
      vertex -0.486057 -4.624527 17.750000
    endloop
  endfacet
  facet normal -0.207912 -0.978148 0.000000
    outer loop
      vertex -0.486057 -4.624527 18.500000
      vertex -1.436929 -4.422413 18.500000
      vertex -0.486057 -4.624527 17.750000
    endloop
  endfacet
  facet normal -0.406737 -0.913545 0.000000
    outer loop
      vertex -2.325000 -4.027018 18.500000
      vertex -2.325000 -4.027018 17.750000
      vertex -1.436929 -4.422413 17.750000
    endloop
  endfacet
  facet normal -0.406737 -0.913545 0.000000
    outer loop
      vertex -1.436929 -4.422413 18.500000
      vertex -2.325000 -4.027018 18.500000
      vertex -1.436929 -4.422413 17.750000
    endloop
  endfacet
  facet normal -0.338996 -0.761397 -0.552591
    outer loop
      vertex -1.436929 -4.422413 17.750000
      vertex -2.325000 -4.027018 17.750000
      vertex -1.282421 -3.946885 17.000000
    endloop
  endfacet
  facet normal -0.338996 -0.761396 -0.552591
    outer loop
      vertex -1.282421 -3.946885 17.000000
      vertex -2.325000 -4.027018 17.750000
      vertex -2.075000 -3.594005 17.000000
    endloop
  endfacet
  facet normal -0.406738 -0.913545 -0.000000
    outer loop
      vertex -1.491707 -3.853705 0.564259
      vertex -2.075000 -3.594005 17.000000
      vertex -2.075000 -3.594005 0.669232
    endloop
  endfacet
  facet normal -0.406738 -0.913545 -0.000000
    outer loop
      vertex -1.491707 -3.853705 0.564259
      vertex -1.282421 -3.946885 0.526594
      vertex -2.075000 -3.594005 17.000000
    endloop
  endfacet
  facet normal -0.406738 -0.913545 -0.000000
    outer loop
      vertex -1.282421 -3.946885 0.526594
      vertex -1.282421 -3.946885 17.000000
      vertex -2.075000 -3.594005 17.000000
    endloop
  endfacet
  facet normal -0.207911 -0.978148 0.000000
    outer loop
      vertex -1.282421 -3.946885 17.000000
      vertex -1.282421 -3.946885 0.526594
      vertex -0.433793 -4.127266 0.669231
    endloop
  endfacet
  facet normal -0.207911 -0.978148 -0.000000
    outer loop
      vertex -0.433793 -4.127266 0.669231
      vertex -0.433793 -4.127266 17.000000
      vertex -1.282421 -3.946885 17.000000
    endloop
  endfacet
  facet normal 0.000000 -1.000000 0.000000
    outer loop
      vertex -0.433793 -4.127266 17.000000
      vertex -0.433793 -4.127266 0.669231
      vertex 0.204699 -4.127266 0.564259
    endloop
  endfacet
  facet normal 0.000000 -1.000000 0.000000
    outer loop
      vertex 0.433793 -4.127266 0.526595
      vertex -0.433793 -4.127266 17.000000
      vertex 0.204699 -4.127266 0.564259
    endloop
  endfacet
  facet normal 0.000000 -1.000000 0.000000
    outer loop
      vertex 0.433793 -4.127266 0.526595
      vertex 0.433793 -4.127266 17.000000
      vertex -0.433793 -4.127266 17.000000
    endloop
  endfacet
  facet normal 0.207911 -0.978148 0.000000
    outer loop
      vertex 0.433793 -4.127266 17.000000
      vertex 0.433793 -4.127266 0.526595
      vertex 1.282421 -3.946885 0.669230
    endloop
  endfacet
  facet normal 0.207911 -0.978148 0.000000
    outer loop
      vertex 1.282421 -3.946885 0.669230
      vertex 1.282421 -3.946885 17.000000
      vertex 0.433793 -4.127266 17.000000
    endloop
  endfacet
  facet normal 0.406738 -0.913545 0.000000
    outer loop
      vertex 1.282421 -3.946885 17.000000
      vertex 1.282421 -3.946885 0.669230
      vertex 1.865714 -3.687186 0.564259
    endloop
  endfacet
  facet normal 0.406738 -0.913545 0.000000
    outer loop
      vertex 2.075000 -3.594005 17.000000
      vertex 1.282421 -3.946885 17.000000
      vertex 2.075000 -3.594005 0.526595
    endloop
  endfacet
  facet normal 0.406738 -0.913545 -0.000000
    outer loop
      vertex 2.075000 -3.594005 0.526595
      vertex 1.282421 -3.946885 17.000000
      vertex 1.865714 -3.687186 0.564259
    endloop
  endfacet
  facet normal 0.587785 -0.809017 0.000000
    outer loop
      vertex 2.075000 -3.594005 17.000000
      vertex 2.075000 -3.594005 0.526595
      vertex 2.776892 -3.084051 0.669230
    endloop
  endfacet
  facet normal 0.587785 -0.809017 0.000000
    outer loop
      vertex 2.776892 -3.084051 0.669230
      vertex 2.776892 -3.084051 17.000000
      vertex 2.075000 -3.594005 17.000000
    endloop
  endfacet
  facet normal 0.743144 -0.669131 0.000000
    outer loop
      vertex 2.776892 -3.084051 17.000000
      vertex 2.776892 -3.084051 0.669230
      vertex 3.204130 -2.609555 0.564257
    endloop
  endfacet
  facet normal 0.743144 -0.669131 0.000000
    outer loop
      vertex 3.357421 -2.439309 17.000000
      vertex 2.776892 -3.084051 17.000000
      vertex 3.357421 -2.439309 0.526593
    endloop
  endfacet
  facet normal 0.743144 -0.669131 -0.000000
    outer loop
      vertex 3.357421 -2.439309 0.526593
      vertex 2.776892 -3.084051 17.000000
      vertex 3.204130 -2.609555 0.564257
    endloop
  endfacet
  facet normal 0.866026 -0.500000 0.000000
    outer loop
      vertex 3.357421 -2.439309 17.000000
      vertex 3.357421 -2.439309 0.526593
      vertex 3.791214 -1.687957 0.669231
    endloop
  endfacet
  facet normal 0.866026 -0.500000 -0.000000
    outer loop
      vertex 3.791214 -1.687957 0.669230
      vertex 3.357421 -2.439309 17.000000
      vertex 3.791214 -1.687957 0.669231
    endloop
  endfacet
  facet normal 0.866026 -0.500000 0.000000
    outer loop
      vertex 3.791214 -1.687957 0.669230
      vertex 3.791214 -1.687957 17.000000
      vertex 3.357421 -2.439309 17.000000
    endloop
  endfacet
  facet normal 0.951056 -0.309017 0.000000
    outer loop
      vertex 3.791214 -1.687957 17.000000
      vertex 3.791214 -1.687957 0.669230
      vertex 3.988520 -1.080713 0.564258
    endloop
  endfacet
  facet normal 0.951056 -0.309017 -0.000000
    outer loop
      vertex 4.059313 -0.862834 0.526594
      vertex 3.791214 -1.687957 17.000000
      vertex 3.988520 -1.080713 0.564258
    endloop
  endfacet
  facet normal 0.951056 -0.309017 0.000000
    outer loop
      vertex 4.059313 -0.862834 0.526594
      vertex 4.059313 -0.862834 17.000000
      vertex 3.791214 -1.687957 17.000000
    endloop
  endfacet
  facet normal 0.994522 -0.104528 0.000000
    outer loop
      vertex 4.059313 -0.862834 17.000000
      vertex 4.059313 -0.862834 0.526594
      vertex 4.150000 0.000000 0.669231
    endloop
  endfacet
  facet normal 0.994522 -0.104528 0.000000
    outer loop
      vertex 4.150000 0.000000 17.000000
      vertex 4.059313 -0.862834 17.000000
      vertex 4.150000 0.000000 0.669231
    endloop
  endfacet
  facet normal 0.994522 0.104528 0.000000
    outer loop
      vertex 4.083259 0.634998 0.564258
      vertex 4.059313 0.862834 0.526594
      vertex 4.059313 0.862834 17.000000
    endloop
  endfacet
  facet normal 0.994522 0.104528 0.000000
    outer loop
      vertex 4.150000 0.000000 0.669231
      vertex 4.083259 0.634998 0.564258
      vertex 4.150000 0.000000 17.000000
    endloop
  endfacet
  facet normal 0.994522 0.104528 -0.000000
    outer loop
      vertex 4.150000 0.000000 17.000000
      vertex 4.083259 0.634998 0.564258
      vertex 4.059313 0.862834 17.000000
    endloop
  endfacet
  facet normal 0.951056 0.309017 0.000000
    outer loop
      vertex 4.059313 0.862834 0.526594
      vertex 3.791214 1.687957 0.669230
      vertex 3.791214 1.687957 17.000000
    endloop
  endfacet
  facet normal 0.951056 0.309017 -0.000000
    outer loop
      vertex 4.059313 0.862834 17.000000
      vertex 4.059313 0.862834 0.526594
      vertex 3.791214 1.687957 17.000000
    endloop
  endfacet
  facet normal 0.866026 0.500000 0.000000
    outer loop
      vertex 3.471966 2.240910 0.564258
      vertex 3.357421 2.439309 0.526594
      vertex 3.357421 2.439309 17.000000
    endloop
  endfacet
  facet normal 0.866026 0.500000 -0.000000
    outer loop
      vertex 3.791214 1.687957 0.669231
      vertex 3.471966 2.240910 0.564258
      vertex 3.791214 1.687957 17.000000
    endloop
  endfacet
  facet normal 0.866026 0.500000 -0.000000
    outer loop
      vertex 3.791214 1.687957 17.000000
      vertex 3.471966 2.240910 0.564258
      vertex 3.357421 2.439309 17.000000
    endloop
  endfacet
  facet normal 0.866026 0.500000 0.000000
    outer loop
      vertex 3.791214 1.687957 0.669230
      vertex 3.791214 1.687957 0.669231
      vertex 3.791214 1.687957 17.000000
    endloop
  endfacet
  facet normal 0.743144 0.669131 0.000000
    outer loop
      vertex 3.357421 2.439309 0.526594
      vertex 2.776892 3.084051 0.669230
      vertex 2.776892 3.084051 17.000000
    endloop
  endfacet
  facet normal 0.743144 0.669131 -0.000000
    outer loop
      vertex 3.357421 2.439309 17.000000
      vertex 3.357421 2.439309 0.526594
      vertex 2.776892 3.084051 17.000000
    endloop
  endfacet
  facet normal 0.587785 0.809017 0.000000
    outer loop
      vertex 2.075000 3.594005 0.526595
      vertex 2.075000 3.594005 17.000000
      vertex 2.260340 3.459348 0.564259
    endloop
  endfacet
  facet normal 0.587785 0.809017 -0.000000
    outer loop
      vertex 2.260340 3.459348 0.564259
      vertex 2.075000 3.594005 17.000000
      vertex 2.776892 3.084051 17.000000
    endloop
  endfacet
  facet normal 0.587785 0.809017 -0.000000
    outer loop
      vertex 2.260340 3.459348 0.564259
      vertex 2.776892 3.084051 17.000000
      vertex 2.776892 3.084051 0.669230
    endloop
  endfacet
  facet normal 0.406738 0.913545 0.000000
    outer loop
      vertex 1.282421 3.946885 0.669230
      vertex 1.282421 3.946885 17.000000
      vertex 2.075000 3.594005 0.526595
    endloop
  endfacet
  facet normal 0.406738 0.913545 0.000000
    outer loop
      vertex 2.075000 3.594005 0.526595
      vertex 1.282421 3.946885 17.000000
      vertex 2.075000 3.594005 17.000000
    endloop
  endfacet
  facet normal 0.207911 0.978148 0.000000
    outer loop
      vertex 0.433793 4.127266 0.526595
      vertex 0.433793 4.127266 17.000000
      vertex 0.657879 4.079635 0.564258
    endloop
  endfacet
  facet normal 0.207911 0.978148 -0.000000
    outer loop
      vertex 0.657879 4.079635 0.564258
      vertex 0.433793 4.127266 17.000000
      vertex 1.282421 3.946885 17.000000
    endloop
  endfacet
  facet normal 0.207911 0.978148 -0.000000
    outer loop
      vertex 0.657879 4.079635 0.564258
      vertex 1.282421 3.946885 17.000000
      vertex 1.282421 3.946885 0.669230
    endloop
  endfacet
  facet normal 0.000000 1.000000 0.000000
    outer loop
      vertex -0.433793 4.127266 0.669231
      vertex -0.433793 4.127266 17.000000
      vertex 0.433793 4.127266 0.526595
    endloop
  endfacet
  facet normal 0.000000 1.000000 0.000000
    outer loop
      vertex 0.433793 4.127266 0.526595
      vertex -0.433793 4.127266 17.000000
      vertex 0.433793 4.127266 17.000000
    endloop
  endfacet
  facet normal -0.207911 0.978148 0.000000
    outer loop
      vertex -1.282421 3.946885 0.526594
      vertex -1.282421 3.946885 17.000000
      vertex -1.058335 3.994516 0.564258
    endloop
  endfacet
  facet normal -0.207911 0.978148 -0.000000
    outer loop
      vertex -1.058335 3.994516 0.564258
      vertex -1.282421 3.946885 17.000000
      vertex -0.433793 4.127266 17.000000
    endloop
  endfacet
  facet normal -0.207911 0.978148 -0.000000
    outer loop
      vertex -1.058335 3.994516 0.564258
      vertex -0.433793 4.127266 17.000000
      vertex -0.433793 4.127266 0.669231
    endloop
  endfacet
  facet normal -0.406738 0.913545 -0.000000
    outer loop
      vertex -2.075000 3.594005 0.669232
      vertex -2.075000 3.594005 17.000000
      vertex -1.282421 3.946885 17.000000
    endloop
  endfacet
  facet normal -0.406738 0.913545 0.000000
    outer loop
      vertex -2.075000 3.594005 0.669232
      vertex -1.282421 3.946885 17.000000
      vertex -1.282421 3.946885 0.526594
    endloop
  endfacet
  facet normal -0.338997 0.761397 -0.552591
    outer loop
      vertex -1.282421 3.946885 17.000000
      vertex -2.075000 3.594005 17.000000
      vertex -1.436929 4.422413 17.750000
    endloop
  endfacet
  facet normal -0.173284 0.815240 -0.552591
    outer loop
      vertex -1.282421 3.946885 17.000000
      vertex -1.436929 4.422413 17.750000
      vertex -0.486057 4.624527 17.750000
    endloop
  endfacet
  facet normal 0.000000 1.000000 0.000000
    outer loop
      vertex -0.486057 4.624527 17.750000
      vertex -0.486057 4.624527 18.500000
      vertex 0.486057 4.624527 17.750000
    endloop
  endfacet
  facet normal 0.000000 1.000000 0.000000
    outer loop
      vertex 0.486057 4.624527 17.750000
      vertex -0.486057 4.624527 18.500000
      vertex 0.486057 4.624527 18.500000
    endloop
  endfacet
  facet normal 0.207912 0.978148 0.000000
    outer loop
      vertex 0.486057 4.624527 17.750000
      vertex 0.486057 4.624527 18.500000
      vertex 1.436929 4.422413 17.750000
    endloop
  endfacet
  facet normal 0.207912 0.978148 0.000000
    outer loop
      vertex 1.436929 4.422413 17.750000
      vertex 0.486057 4.624527 18.500000
      vertex 1.436929 4.422413 18.500000
    endloop
  endfacet
  facet normal 0.406737 0.913545 0.000000
    outer loop
      vertex 1.436929 4.422413 17.750000
      vertex 1.436929 4.422413 18.500000
      vertex 2.325000 4.027018 17.750000
    endloop
  endfacet
  facet normal 0.406737 0.913545 0.000000
    outer loop
      vertex 2.325000 4.027018 17.750000
      vertex 1.436929 4.422413 18.500000
      vertex 2.325000 4.027018 18.500000
    endloop
  endfacet
  facet normal 0.587786 0.809017 0.000000
    outer loop
      vertex 2.325000 4.027018 17.750000
      vertex 2.325000 4.027018 18.500000
      vertex 3.111457 3.455623 17.750000
    endloop
  endfacet
  facet normal 0.587786 0.809017 0.000000
    outer loop
      vertex 3.111457 3.455623 17.750000
      vertex 2.325000 4.027018 18.500000
      vertex 3.111457 3.455623 18.500000
    endloop
  endfacet
  facet normal 0.743145 0.669131 0.000000
    outer loop
      vertex 3.761929 2.733201 17.750000
      vertex 3.111457 3.455623 17.750000
      vertex 3.111457 3.455623 18.500000
    endloop
  endfacet
  facet normal 0.743145 0.669131 -0.000000
    outer loop
      vertex 3.761929 2.733201 18.500000
      vertex 3.761929 2.733201 17.750000
      vertex 3.111457 3.455623 18.500000
    endloop
  endfacet
  facet normal 0.866026 0.500000 0.000000
    outer loop
      vertex 4.247986 1.891325 17.750000
      vertex 3.761929 2.733201 17.750000
      vertex 3.761929 2.733201 18.500000
    endloop
  endfacet
  facet normal 0.866026 0.500000 -0.000000
    outer loop
      vertex 4.247986 1.891325 18.500000
      vertex 4.247986 1.891325 17.750000
      vertex 3.761929 2.733201 18.500000
    endloop
  endfacet
  facet normal 0.951057 0.309017 0.000000
    outer loop
      vertex 4.548386 0.966789 17.750000
      vertex 4.247986 1.891325 17.750000
      vertex 4.247986 1.891325 18.500000
    endloop
  endfacet
  facet normal 0.951057 0.309017 -0.000000
    outer loop
      vertex 4.548386 0.966789 18.500000
      vertex 4.548386 0.966789 17.750000
      vertex 4.247986 1.891325 18.500000
    endloop
  endfacet
  facet normal 0.994522 0.104529 0.000000
    outer loop
      vertex 4.650000 0.000000 17.750000
      vertex 4.548386 0.966789 17.750000
      vertex 4.548386 0.966789 18.500000
    endloop
  endfacet
  facet normal 0.994522 0.104529 -0.000000
    outer loop
      vertex 4.650000 0.000000 18.500000
      vertex 4.650000 0.000000 17.750000
      vertex 4.548386 0.966789 18.500000
    endloop
  endfacet
  facet normal 0.994522 -0.104529 0.000000
    outer loop
      vertex 4.548386 -0.966789 18.500000
      vertex 4.548386 -0.966789 17.750000
      vertex 4.650000 0.000000 17.750000
    endloop
  endfacet
  facet normal 0.994522 -0.104529 0.000000
    outer loop
      vertex 4.650000 0.000000 18.500000
      vertex 4.548386 -0.966789 18.500000
      vertex 4.650000 0.000000 17.750000
    endloop
  endfacet
  facet normal 0.951057 -0.309017 0.000000
    outer loop
      vertex 4.247986 -1.891325 18.500000
      vertex 4.247986 -1.891325 17.750000
      vertex 4.548386 -0.966789 17.750000
    endloop
  endfacet
  facet normal 0.951057 -0.309017 0.000000
    outer loop
      vertex 4.548386 -0.966789 18.500000
      vertex 4.247986 -1.891325 18.500000
      vertex 4.548386 -0.966789 17.750000
    endloop
  endfacet
  facet normal 0.866026 -0.500000 0.000000
    outer loop
      vertex 3.761929 -2.733201 18.500000
      vertex 3.761929 -2.733201 17.750000
      vertex 4.247986 -1.891325 17.750000
    endloop
  endfacet
  facet normal 0.866026 -0.500000 0.000000
    outer loop
      vertex 4.247986 -1.891325 18.500000
      vertex 3.761929 -2.733201 18.500000
      vertex 4.247986 -1.891325 17.750000
    endloop
  endfacet
  facet normal 0.743145 -0.669131 0.000000
    outer loop
      vertex 3.111457 -3.455623 18.500000
      vertex 3.111457 -3.455623 17.750000
      vertex 3.761929 -2.733201 17.750000
    endloop
  endfacet
  facet normal 0.743145 -0.669131 0.000000
    outer loop
      vertex 3.761929 -2.733201 18.500000
      vertex 3.111457 -3.455623 18.500000
      vertex 3.761929 -2.733201 17.750000
    endloop
  endfacet
  facet normal 0.587786 -0.809017 0.000000
    outer loop
      vertex 2.325000 -4.027018 18.500000
      vertex 2.325000 -4.027018 17.750000
      vertex 3.111457 -3.455623 17.750000
    endloop
  endfacet
  facet normal 0.587786 -0.809017 0.000000
    outer loop
      vertex 3.111457 -3.455623 18.500000
      vertex 2.325000 -4.027018 18.500000
      vertex 3.111457 -3.455623 17.750000
    endloop
  endfacet
  facet normal 0.406737 -0.913545 0.000000
    outer loop
      vertex 1.436929 -4.422413 18.500000
      vertex 1.436929 -4.422413 17.750000
      vertex 2.325000 -4.027018 17.750000
    endloop
  endfacet
  facet normal 0.406737 -0.913545 0.000000
    outer loop
      vertex 2.325000 -4.027018 18.500000
      vertex 1.436929 -4.422413 18.500000
      vertex 2.325000 -4.027018 17.750000
    endloop
  endfacet
  facet normal 0.207912 -0.978148 0.000000
    outer loop
      vertex 0.486057 -4.624527 18.500000
      vertex 0.486057 -4.624527 17.750000
      vertex 1.436929 -4.422413 17.750000
    endloop
  endfacet
  facet normal 0.207912 -0.978148 0.000000
    outer loop
      vertex 1.436929 -4.422413 18.500000
      vertex 0.486057 -4.624527 18.500000
      vertex 1.436929 -4.422413 17.750000
    endloop
  endfacet
  facet normal 0.000000 -1.000000 0.000000
    outer loop
      vertex -0.486057 -4.624527 18.500000
      vertex -0.486057 -4.624527 17.750000
      vertex 0.486057 -4.624527 17.750000
    endloop
  endfacet
  facet normal 0.000000 -1.000000 0.000000
    outer loop
      vertex 0.486057 -4.624527 18.500000
      vertex -0.486057 -4.624527 18.500000
      vertex 0.486057 -4.624527 17.750000
    endloop
  endfacet
  facet normal -0.173284 0.815240 -0.552591
    outer loop
      vertex -0.433793 4.127266 17.000000
      vertex -1.282421 3.946885 17.000000
      vertex -0.486057 4.624527 17.750000
    endloop
  endfacet
  facet normal 0.000000 0.833452 -0.552591
    outer loop
      vertex -0.486057 4.624527 17.750000
      vertex 0.486057 4.624527 17.750000
      vertex -0.433793 4.127266 17.000000
    endloop
  endfacet
  facet normal 0.000000 0.833452 -0.552591
    outer loop
      vertex -0.433793 4.127266 17.000000
      vertex 0.486057 4.624527 17.750000
      vertex 0.433793 4.127266 17.000000
    endloop
  endfacet
  facet normal 0.000000 -0.833452 -0.552591
    outer loop
      vertex 0.486057 -4.624527 17.750000
      vertex -0.486057 -4.624527 17.750000
      vertex -0.433793 -4.127266 17.000000
    endloop
  endfacet
  facet normal 0.000000 -0.833452 -0.552591
    outer loop
      vertex 0.433793 -4.127266 17.000000
      vertex 0.486057 -4.624527 17.750000
      vertex -0.433793 -4.127266 17.000000
    endloop
  endfacet
  facet normal -0.173284 -0.815240 -0.552591
    outer loop
      vertex -0.486057 -4.624527 17.750000
      vertex -1.436929 -4.422413 17.750000
      vertex -0.433793 -4.127266 17.000000
    endloop
  endfacet
  facet normal -0.173284 -0.815240 -0.552591
    outer loop
      vertex -0.433793 -4.127266 17.000000
      vertex -1.436929 -4.422413 17.750000
      vertex -1.282421 -3.946885 17.000000
    endloop
  endfacet
  facet normal 0.173284 -0.815240 -0.552591
    outer loop
      vertex 0.486057 -4.624527 17.750000
      vertex 0.433793 -4.127266 17.000000
      vertex 1.282421 -3.946885 17.000000
    endloop
  endfacet
  facet normal 0.173284 -0.815240 -0.552591
    outer loop
      vertex 1.436929 -4.422413 17.750000
      vertex 0.486057 -4.624527 17.750000
      vertex 1.282421 -3.946885 17.000000
    endloop
  endfacet
  facet normal 0.338997 -0.761397 -0.552591
    outer loop
      vertex 1.436929 -4.422413 17.750000
      vertex 1.282421 -3.946885 17.000000
      vertex 2.075000 -3.594005 17.000000
    endloop
  endfacet
  facet normal 0.338996 -0.761396 -0.552591
    outer loop
      vertex 2.325000 -4.027018 17.750000
      vertex 1.436929 -4.422413 17.750000
      vertex 2.075000 -3.594005 17.000000
    endloop
  endfacet
  facet normal 0.489891 -0.674277 -0.552591
    outer loop
      vertex 2.325000 -4.027018 17.750000
      vertex 2.075000 -3.594005 17.000000
      vertex 2.776892 -3.084051 17.000000
    endloop
  endfacet
  facet normal 0.489892 -0.674277 -0.552591
    outer loop
      vertex 3.111457 -3.455623 17.750000
      vertex 2.325000 -4.027018 17.750000
      vertex 2.776892 -3.084051 17.000000
    endloop
  endfacet
  facet normal 0.619376 -0.557689 -0.552591
    outer loop
      vertex 3.111457 -3.455623 17.750000
      vertex 2.776892 -3.084051 17.000000
      vertex 3.357421 -2.439309 17.000000
    endloop
  endfacet
  facet normal 0.619376 -0.557689 -0.552591
    outer loop
      vertex 3.761929 -2.733201 17.750000
      vertex 3.111457 -3.455623 17.750000
      vertex 3.357421 -2.439309 17.000000
    endloop
  endfacet
  facet normal 0.721791 -0.416726 -0.552591
    outer loop
      vertex 3.761929 -2.733201 17.750000
      vertex 3.357421 -2.439309 17.000000
      vertex 3.791214 -1.687957 17.000000
    endloop
  endfacet
  facet normal 0.721791 -0.416726 -0.552591
    outer loop
      vertex 4.247986 -1.891325 17.750000
      vertex 3.761929 -2.733201 17.750000
      vertex 3.791214 -1.687957 17.000000
    endloop
  endfacet
  facet normal 0.792661 -0.257551 -0.552591
    outer loop
      vertex 4.247986 -1.891325 17.750000
      vertex 3.791214 -1.687957 17.000000
      vertex 4.059313 -0.862834 17.000000
    endloop
  endfacet
  facet normal 0.792661 -0.257551 -0.552590
    outer loop
      vertex 4.247986 -1.891325 17.750000
      vertex 4.059313 -0.862834 17.000000
      vertex 4.548386 -0.966789 17.750000
    endloop
  endfacet
  facet normal 0.828887 -0.087119 -0.552590
    outer loop
      vertex 4.548386 -0.966789 17.750000
      vertex 4.059313 -0.862834 17.000000
      vertex 4.150000 0.000000 17.000000
    endloop
  endfacet
  facet normal 0.828887 -0.087120 -0.552591
    outer loop
      vertex 4.548386 -0.966789 17.750000
      vertex 4.150000 0.000000 17.000000
      vertex 4.650000 0.000000 17.750000
    endloop
  endfacet
  facet normal 0.828887 0.087119 -0.552591
    outer loop
      vertex 4.150000 0.000000 17.000000
      vertex 4.059313 0.862834 17.000000
      vertex 4.650000 0.000000 17.750000
    endloop
  endfacet
  facet normal 0.792661 0.257551 -0.552590
    outer loop
      vertex 4.059313 0.862834 17.000000
      vertex 3.791214 1.687957 17.000000
      vertex 4.548386 0.966789 17.750000
    endloop
  endfacet
  facet normal 0.828887 0.087120 -0.552590
    outer loop
      vertex 4.650000 0.000000 17.750000
      vertex 4.059313 0.862834 17.000000
      vertex 4.548386 0.966789 17.750000
    endloop
  endfacet
  facet normal 0.721791 0.416726 -0.552591
    outer loop
      vertex 3.791214 1.687957 17.000000
      vertex 3.357421 2.439309 17.000000
      vertex 4.247986 1.891325 17.750000
    endloop
  endfacet
  facet normal 0.792661 0.257551 -0.552591
    outer loop
      vertex 4.548386 0.966789 17.750000
      vertex 3.791214 1.687957 17.000000
      vertex 4.247986 1.891325 17.750000
    endloop
  endfacet
  facet normal 0.619376 0.557689 -0.552591
    outer loop
      vertex 3.357421 2.439309 17.000000
      vertex 2.776892 3.084051 17.000000
      vertex 3.761929 2.733201 17.750000
    endloop
  endfacet
  facet normal 0.721791 0.416726 -0.552591
    outer loop
      vertex 4.247986 1.891325 17.750000
      vertex 3.357421 2.439309 17.000000
      vertex 3.761929 2.733201 17.750000
    endloop
  endfacet
  facet normal 0.489891 0.674278 -0.552591
    outer loop
      vertex 2.776892 3.084051 17.000000
      vertex 2.075000 3.594005 17.000000
      vertex 3.111457 3.455623 17.750000
    endloop
  endfacet
  facet normal 0.619376 0.557689 -0.552591
    outer loop
      vertex 3.761929 2.733201 17.750000
      vertex 2.776892 3.084051 17.000000
      vertex 3.111457 3.455623 17.750000
    endloop
  endfacet
  facet normal 0.338996 0.761396 -0.552591
    outer loop
      vertex 2.075000 3.594005 17.000000
      vertex 1.282421 3.946885 17.000000
      vertex 2.325000 4.027018 17.750000
    endloop
  endfacet
  facet normal 0.489891 0.674277 -0.552591
    outer loop
      vertex 3.111457 3.455623 17.750000
      vertex 2.075000 3.594005 17.000000
      vertex 2.325000 4.027018 17.750000
    endloop
  endfacet
  facet normal 0.173284 0.815240 -0.552591
    outer loop
      vertex 1.282421 3.946885 17.000000
      vertex 0.433793 4.127266 17.000000
      vertex 1.436929 4.422413 17.750000
    endloop
  endfacet
  facet normal 0.338996 0.761397 -0.552591
    outer loop
      vertex 2.325000 4.027018 17.750000
      vertex 1.282421 3.946885 17.000000
      vertex 1.436929 4.422413 17.750000
    endloop
  endfacet
  facet normal 0.173284 0.815240 -0.552591
    outer loop
      vertex 1.436929 4.422413 17.750000
      vertex 0.433793 4.127266 17.000000
      vertex 0.486057 4.624527 17.750000
    endloop
  endfacet
endsolid OpenSCAD_Model
