<?xml version="1.0" encoding="UTF-8" standalone="no"?>
<svg
   xmlns:dc="http://purl.org/dc/elements/1.1/"
   xmlns:cc="http://creativecommons.org/ns#"
   xmlns:rdf="http://www.w3.org/1999/02/22-rdf-syntax-ns#"
   xmlns:svg="http://www.w3.org/2000/svg"
   xmlns="http://www.w3.org/2000/svg"
   xmlns:sodipodi="http://sodipodi.sourceforge.net/DTD/sodipodi-0.dtd"
   xmlns:inkscape="http://www.inkscape.org/namespaces/inkscape"
   id="svg4022"
   version="1.1"
   inkscape:version="0.48.1 r9760"
   width="283.28125"
   height="291.21875"
   sodipodi:docname="frog-body.svg">
  <metadata
     id="metadata4103">
    <rdf:RDF>
      <cc:Work
         rdf:about="">
        <dc:format>image/svg+xml</dc:format>
        <dc:type
           rdf:resource="http://purl.org/dc/dcmitype/StillImage" />
        <dc:title></dc:title>
      </cc:Work>
    </rdf:RDF>
  </metadata>
  <sodipodi:namedview
     pagecolor="#ffffff"
     bordercolor="#666666"
     borderopacity="1"
     objecttolerance="10"
     gridtolerance="10"
     guidetolerance="10"
     inkscape:pageopacity="0"
     inkscape:pageshadow="2"
     inkscape:window-width="1280"
     inkscape:window-height="752"
     id="namedview4101"
     showgrid="false"
     inkscape:zoom="1.4083515"
     inkscape:cx="72.498639"
     inkscape:cy="132.24024"
     inkscape:window-x="0"
     inkscape:window-y="0"
     inkscape:window-maximized="0"
     inkscape:current-layer="g4031"
     fit-margin-top="0"
     fit-margin-left="0"
     fit-margin-right="0"
     fit-margin-bottom="0" />
  <desc
     id="desc4024">/Users/rmcguire/Desktop/frog-body.dxf - scale = 1.000000</desc>
  <defs
     id="defs4026">
    <marker
       refY="0"
       refX="0"
       style="overflow:visible"
       id="DistanceX"
       orient="auto">
      <path
         style="stroke:#000000;stroke-width:0.5"
         d="M 3,-3 -3,3 M 0,-5 0,5"
         id="path4029"
         inkscape:connector-curvature="0" />
    </marker>
  </defs>
  <g
     inkscape:label="0"
     inkscape:groupmode="layer"
     id="g4031">
    <path
       style="fill:#b8b8b8;fill-opacity:1;stroke:#000000"
       d="m 0,29.0185 0.49961,-4.1811 1.47047,-3.9437 2.36339,-3.48307 3.11457,-2.8311 13.19173,-7.57205 14.40354,-4.88622 15.07677,-2.01968 15.17953,0.92834 14.7189,3.8374 13.70197,6.60473 12.17126,9.12047 13.0748,10.44213 128.90197,102.94724 13.91102,16.9122 11.25709,18.78308 8.35512,20.24291 0.48897,1.80709 0.2941,1.84606 0.0992,1.87086 1e-5,77.15201 -0.60236,4.585 -1.77166,4.2732 -2.81338,3.6709 -3.67087,2.8134 -4.27323,1.7716 -4.58504,0.6024 -246.84094,0 L 13.1315,289.7102 8.85827,287.9386 5.18741,285.1252 2.37402,281.4543 0.60237,277.1811 0,272.5961 z"
       id="path4061"
       inkscape:connector-curvature="0"
       sodipodi:nodetypes="ccccccccccccccccccccccccccccccccccc" />
  </g>
</svg>
